<svg width="103" height="100" viewBox="0 0 103 100" fill="none" xmlns="http://www.w3.org/2000/svg">
<g id="amd">
<g id="simbolo">
<path id="Vector 17" d="M78.8374 0H24.4585L39.4186 15.0393H63.9564V39.8937L78.8374 54.6955V0Z" fill="#778DA9"/>
<path id="Vector 18" d="M39.3395 39.8937V18.2054L23.9836 33.6405V55.4079H45.5135L60.9486 39.8937H39.3395Z" fill="#778DA9"/>
</g>
<g id="letras">
<path id="d" fill-rule="evenodd" clip-rule="evenodd" d="M73.7717 100H86.9112C97.4387 100 102.9 93.1927 102.9 86.7021V84.1692C101.713 74.5124 95.7765 70.9504 86.9112 70.5547H73.7717V100ZM81.0539 94.6175H87.5523C91.7397 94.6175 95.4599 90.3355 95.4599 86.2527V84.6594C95.0642 79.3408 91.9367 76.3444 87.5523 76.0954H81.0539V94.6175Z" fill="#778DA9"/>
<path id="m" d="M60.9487 100H68.2309V70.5547H61.8986L52.4792 81.4779L42.9807 70.5547H36.7276V100H44.0097V81.7154L51.846 90.8181H53.1125L60.9487 81.7154V100Z" fill="#778DA9"/>
<path id="a" fill-rule="evenodd" clip-rule="evenodd" d="M0 100H7.67795L9.81511 94.3009H23.0339L25.4085 100H33.2447L20.2635 70.5547H11.794L0 100ZM11.7939 89.0767H16.3205H20.8471L16.0682 77.6785L11.7939 89.0767Z" fill="#778DA9"/>
</g>
</g>
</svg>
