<svg width="80" height="99" viewBox="0 0 80 99" fill="none" xmlns="http://www.w3.org/2000/svg">
<g id="apple">
<path id="Vector 24" d="M77.0001 34.0505C61.3371 44.6458 64.9543 65.7486 79.5589 72.3252C79.8029 72.4352 79.9255 72.7178 79.8306 72.9682C74.5037 87.0181 67.1047 96.767 59.384 98.555H56.6735C50.7267 97.7725 51.4143 96.0209 44.107 94.7916C43.3468 94.6638 42.57 94.6125 41.7992 94.6125C40.6034 94.6125 39.4054 94.7355 38.2491 95.04C31.9703 96.6937 29.7075 98.6371 26.6119 98.6371H24.1478C15.8522 98.6371 0 73.4215 0 56.748V50.9164C1.59241 34.9165 9.69544 27.3874 19.8495 24.839C21.5461 24.4132 23.3021 24.3045 25.0513 24.3045C31.0249 24.5403 33.9146 27.183 39.1188 28.3458C39.5931 28.4518 40.0803 28.4934 40.5662 28.4934C41.0637 28.4934 41.5608 28.4512 42.0443 28.334C46.5177 27.2497 51.3209 24.2138 57.0842 24.0581H58.5626C66.8225 24.2987 72.5769 27.5145 77.1254 33.3234C77.3044 33.552 77.2407 33.8878 77.0001 34.0505Z" fill="#778DA9"/>
<path id="Vector 25" d="M59.0323 0.0372398C49.0779 1.02279 38.5996 11.0401 39.9537 22.1565C39.9792 22.3651 40.1353 22.535 40.3426 22.5692C48.8697 23.9732 61.6664 12.204 59.5502 0.430348C59.506 0.184229 59.2811 0.0126026 59.0323 0.0372398Z" fill="#778DA9"/>
</g>
</svg>
