<svg width="61" height="42" viewBox="0 0 61 42" fill="none" xmlns="http://www.w3.org/2000/svg">
<g id="logo">
<g id="H">
<path id="borda" d="M18.8452 1H1.12158C1.05446 1 1.00008 1.05446 1.00018 1.12158L1.06051 40.8788C1.06062 40.9458 1.11494 41 1.18191 41H18.8452C18.9123 41 18.9666 40.9457 18.9666 40.8786V1.1214C18.9666 1.05435 18.9123 1 18.8452 1Z" fill="#4D6EB1" fill-opacity="0.1" stroke="white" stroke-width="0.364188"/>
<path id="Vector 2" d="M17.7526 2.03198H2.21386C2.14682 2.03198 2.09247 2.08633 2.09247 2.15338V39.7862C2.09247 39.8532 2.14682 39.9076 2.21386 39.9076H5.43086C5.4979 39.9076 5.55226 39.8532 5.55226 39.7862V21.0912C5.55226 21.0241 5.60661 20.9698 5.67365 20.9698H7.79808C7.86513 20.9698 7.91948 21.0241 7.91948 21.0912V29.5889C7.91948 29.6559 7.97383 29.7103 8.04087 29.7103H11.9255C11.9926 29.7103 12.0469 29.6559 12.0469 29.5889V21.0912C12.0469 21.0241 12.1013 20.9698 12.1683 20.9698H14.3535C14.4205 20.9698 14.4749 21.0241 14.4749 21.0912V39.7862C14.4749 39.8532 14.5292 39.9076 14.5963 39.9076H17.7526C17.8196 39.9076 17.874 39.8532 17.874 39.7862V2.15338C17.874 2.08633 17.8196 2.03198 17.7526 2.03198Z" fill="white"/>
<path id="Vector 3" d="M11.9256 31.0454H8.04089C7.97385 31.0454 7.91949 31.0998 7.91949 31.1668V39.7859C7.91949 39.853 7.97385 39.9073 8.04089 39.9073H11.9256C11.9926 39.9073 12.047 39.853 12.047 39.7859V31.1668C12.047 31.0998 11.9926 31.0454 11.9256 31.0454Z" fill="white"/>
</g>
<g id="H2">
<path id="borda_2" d="M39.4825 1H21.7589C21.6918 1 21.6374 1.05446 21.6375 1.12158L21.6978 40.8788C21.6979 40.9458 21.7522 41 21.8192 41H39.4825C39.5496 41 39.6039 40.9457 39.6039 40.8786V1.1214C39.6039 1.05435 39.5496 1 39.4825 1Z" fill="#4D6EB1" fill-opacity="0.1" stroke="white" stroke-width="0.364188"/>
<path id="Vector 2_2" d="M38.39 2.03198H22.8513C22.7843 2.03198 22.7299 2.08633 22.7299 2.15338V39.7862C22.7299 39.8532 22.7843 39.9076 22.8513 39.9076H26.0683C26.1354 39.9076 26.1897 39.8532 26.1897 39.7862V21.0912C26.1897 21.0241 26.2441 20.9698 26.3111 20.9698H28.4355C28.5026 20.9698 28.5569 21.0241 28.5569 21.0912V29.5889C28.5569 29.6559 28.6113 29.7103 28.6783 29.7103H32.563C32.63 29.7103 32.6844 29.6559 32.6844 29.5889V21.0912C32.6844 21.0241 32.7387 20.9698 32.8058 20.9698H34.9909C35.058 20.9698 35.1123 21.0241 35.1123 21.0912V39.7862C35.1123 39.8532 35.1667 39.9076 35.2337 39.9076H38.39C38.4571 39.9076 38.5114 39.8532 38.5114 39.7862V2.15338C38.5114 2.08633 38.4571 2.03198 38.39 2.03198Z" fill="white"/>
<path id="Vector 3_2" d="M32.563 31.0454H28.6783C28.6113 31.0454 28.5569 31.0998 28.5569 31.1668V39.7859C28.5569 39.853 28.6113 39.9073 28.6783 39.9073H32.563C32.63 39.9073 32.6844 39.853 32.6844 39.7859V31.1668C32.6844 31.0998 32.63 31.0454 32.563 31.0454Z" fill="white"/>
</g>
<g id="M">
<path id="borda_3" d="M60.1198 1H42.3962C42.3291 1 42.2747 1.05446 42.2748 1.12158L42.3351 40.8788C42.3352 40.9458 42.3895 41 42.4565 41H60.1198C60.1869 41 60.2412 40.9457 60.2412 40.8786V1.1214C60.2412 1.05435 60.1869 1 60.1198 1Z" fill="#4D6EB1" fill-opacity="0.1" stroke="white" stroke-width="0.364188"/>
<path id="Vector 2_3" d="M59.0272 2.03198H43.4885C43.4214 2.03198 43.3671 2.08633 43.3671 2.15338V39.7862C43.3671 39.8532 43.4214 39.9076 43.4885 39.9076H45.9164C45.9834 39.9076 46.0378 39.8532 46.0378 39.7862V21.0912C46.0378 21.0241 46.0921 20.9698 46.1592 20.9698H47.3429C47.3968 20.9698 47.4442 21.0053 47.4594 21.0571L51.3757 34.4426C51.4104 34.5612 51.5795 34.5581 51.6098 34.4383L54.9979 21.0614C55.0115 21.0075 55.06 20.9698 55.1156 20.9698H56.5992C56.6663 20.9698 56.7206 21.0241 56.7206 21.0912V39.7862C56.7206 39.8532 56.775 39.9076 56.842 39.9076H59.0272C59.0942 39.9076 59.1486 39.8532 59.1486 39.7862V2.15338C59.1486 2.08633 59.0942 2.03198 59.0272 2.03198Z" fill="white"/>
<path id="Vector 3_3" d="M47.009 39.9075H50.3474L47.009 28.739V39.9075Z" fill="white"/>
<path id="Vector 4" d="M54.3534 39.9074H51.5006L54.3534 28.0713V39.9074Z" fill="white"/>
</g>
</g>
</svg>
