<svg width="120" height="43" viewBox="0 0 120 43" fill="none" xmlns="http://www.w3.org/2000/svg">
<g id="LOS POLLOS HERMANOS">
<path d="M0 0.595604L0.104862 18.7227H7.89084L9.25404 14.424L2.96234 15.408L4.01096 3.18519L3.95853 3.15929L0 0.595604ZM1.10105 17.3502C1.08357 17.3157 1.07483 17.2898 1.07483 17.2725C1.09231 17.2552 1.10105 17.238 1.10105 17.2207C1.11852 16.9445 1.11852 16.6683 1.10105 16.392C1.08357 16.1158 1.09231 15.8396 1.12726 15.5634C1.31951 15.1663 1.45932 14.7606 1.54671 14.3463C1.65157 13.9147 1.64283 13.4745 1.52049 13.0256C1.31077 12.8357 1.17095 12.6026 1.10105 12.3264C1.03114 12.0329 1.0224 11.7481 1.07483 11.4718C1.12726 11.1784 1.24086 10.9194 1.41563 10.695C1.5904 10.4533 1.80886 10.2806 2.07102 10.1771V9.21891C2.07102 9.20165 2.06228 9.18438 2.0448 9.16712C2.0448 9.13259 2.0448 9.11533 2.0448 9.11533C1.95742 9.02901 1.85256 8.95995 1.73022 8.90816C1.60788 8.85637 1.50302 8.79595 1.41563 8.72689C1.24086 8.53699 1.12726 8.31256 1.07483 8.0536C1.03988 7.79464 1.04862 7.54431 1.10105 7.30262C1.17095 7.04366 1.27582 6.8106 1.41563 6.60343C1.57292 6.379 1.77391 6.215 2.01859 6.11141C2.03606 5.99057 2.03606 5.86972 2.01859 5.74887C2.01859 5.62802 1.96616 5.52444 1.86129 5.43812C1.58166 5.28275 1.38942 5.05832 1.28456 4.76483C1.19717 4.45408 1.18843 4.16059 1.25834 3.88437C1.32825 3.59089 1.46806 3.35782 1.67779 3.18519C1.90499 2.99528 2.20209 2.93486 2.56911 3.00391C2.65649 3.02118 2.71766 3.06434 2.75262 3.13339C2.80505 3.18519 2.82253 3.24561 2.80505 3.31466C2.80505 3.36646 2.77883 3.41825 2.7264 3.47004C2.67397 3.52183 2.60406 3.5391 2.51668 3.52183L2.33317 3.49594C2.17588 3.49594 2.05354 3.53046 1.96616 3.59952C1.87877 3.66857 1.8176 3.76353 1.78265 3.88437C1.74769 4.00522 1.73022 4.1347 1.73022 4.27281C1.74769 4.39366 1.77391 4.50587 1.80886 4.60946C1.9312 4.7303 2.05354 4.86841 2.17588 5.02379C2.29822 5.1619 2.39434 5.31727 2.46425 5.48991C2.55163 5.64529 2.58659 5.80929 2.56911 5.98193C2.56911 6.15457 2.50794 6.32721 2.3856 6.49985C2.03606 6.63796 1.80013 6.87965 1.67779 7.22493C1.55545 7.55295 1.55545 7.88959 1.67779 8.23487C1.67779 8.32119 1.72148 8.36435 1.80886 8.36435C1.89625 8.36435 1.96616 8.38161 2.01859 8.41614C2.22831 8.50246 2.36813 8.61467 2.43803 8.75279C2.52542 8.8909 2.57785 9.0549 2.59533 9.24481C2.6128 9.41745 2.6128 9.59872 2.59533 9.78862C2.57785 9.97852 2.57785 10.1598 2.59533 10.3324C2.59533 10.4533 2.54289 10.531 2.43803 10.5655C2.08849 10.6863 1.82634 10.928 1.65157 11.2906C1.49428 11.6359 1.48554 11.9811 1.62536 12.3264C1.78265 12.4645 1.89625 12.6285 1.96616 12.8184C2.05354 12.9911 2.10597 13.181 2.12345 13.3881C2.14093 13.578 2.14093 13.7766 2.12345 13.9837C2.10597 14.1909 2.08849 14.3894 2.07102 14.5793C1.80886 14.9937 1.66905 15.4425 1.65157 15.9259C1.63409 16.3921 1.62536 16.8582 1.62536 17.3243C1.66031 17.4451 1.72148 17.5228 1.80886 17.5574C1.89625 17.5919 1.99237 17.6178 2.09723 17.635C2.21957 17.635 2.33317 17.635 2.43803 17.635C2.56037 17.635 2.67397 17.6437 2.77883 17.6609C2.97108 17.6955 3.07594 17.635 3.09342 17.4797C3.1109 17.307 3.11963 17.1517 3.11963 17.0136C3.11963 16.8236 3.20702 16.7287 3.38179 16.7287C3.55656 16.7287 3.64394 16.8236 3.64394 17.0136V17.3761C3.64394 17.635 3.57403 17.825 3.43422 17.9458C3.2944 18.0494 3.11963 18.1184 2.90991 18.153C2.71766 18.1702 2.50794 18.1789 2.28074 18.1789C2.07102 18.1616 1.87877 18.1616 1.704 18.1789C1.65157 18.1098 1.58166 18.0494 1.49428 17.9976C1.42437 17.9458 1.35446 17.894 1.28456 17.8422C1.16222 17.8077 1.10105 17.7214 1.10105 17.5833C1.06609 17.5315 1.06609 17.4538 1.10105 17.3502Z" fill="#778DA9"/>
<path d="M10.4458 8.36435L10.6818 15.3821L13.3295 18.7227H18.4939L22.8981 15.5375L23.3176 9.2966V5.77477L19.9096 1.52785L14.6665 0.595604L12.7266 2.61548L12.8314 2.69317L10.8653 5.17916L10.4458 8.36435ZM19.4377 15.2785L14.9811 15.6929L13.749 9.50376L15.6627 4.27281L20.2766 7.04366L19.4377 15.2785ZM13.9325 4.68714L13.9063 4.71304V4.3505C13.7315 4.02248 13.6965 3.68584 13.8014 3.34056C13.9237 2.97802 14.1072 2.6759 14.3519 2.43421C14.7714 2.36515 15.2258 2.32199 15.7151 2.30473C16.2045 2.28746 16.6064 2.44284 16.921 2.77085C16.9385 2.77085 16.9472 2.77948 16.9472 2.79675C16.9472 2.79675 16.956 2.79675 16.9735 2.79675C17.1657 2.79675 17.2618 2.88307 17.2618 3.05571C17.2618 3.22835 17.1657 3.31466 16.9735 3.31466H16.8162C16.554 3.00391 16.2132 2.84854 15.7938 2.84854C15.3743 2.83128 14.9811 2.84854 14.6141 2.90033C14.4917 3.03844 14.3869 3.21108 14.2995 3.41825C14.2995 3.47004 14.2907 3.53046 14.2733 3.59952C14.2733 3.65131 14.2733 3.7031 14.2733 3.75489C14.2733 3.78942 14.2733 3.82395 14.2733 3.85848C14.2907 3.893 14.2995 3.92753 14.2995 3.96206C14.3869 4.08291 14.4306 4.21239 14.4306 4.3505C14.4306 4.48861 14.4306 4.62672 14.4306 4.76483C14.3781 5.05832 14.2034 5.25685 13.9063 5.36043C13.6266 5.44675 13.3645 5.53307 13.1198 5.61939C12.8052 5.67118 12.6217 5.83519 12.5693 6.11141C12.5168 6.37037 12.4731 6.6207 12.4382 6.86239C12.4032 7.06956 12.4557 7.23356 12.5955 7.35441C12.7528 7.45799 12.9101 7.55295 13.0674 7.63927C13.1722 7.70832 13.2072 7.79464 13.1722 7.89822C13.1373 8.07086 13.1373 8.2435 13.1722 8.41614C13.2072 8.57152 13.181 8.73552 13.0936 8.90816C12.744 9.20165 12.4819 9.57282 12.3071 10.0217C12.1498 10.4533 12.1149 10.8935 12.2022 11.3424C12.6217 11.5323 12.9188 11.843 13.0936 12.2746C13.2858 12.6889 13.3382 13.1119 13.2509 13.5435C13.2509 13.6644 13.1984 13.742 13.0936 13.7766C13.0761 13.7938 13.0586 13.8025 13.0411 13.8025C13.0411 13.8025 13.0324 13.8111 13.0149 13.8284C13.0324 14.0183 12.98 14.1909 12.8576 14.3463C12.7528 14.4844 12.6566 14.6398 12.5693 14.8124C12.4644 15.0023 12.4819 15.1577 12.6217 15.2785C12.779 15.3994 12.9275 15.4771 13.0674 15.5116C13.2946 15.4598 13.4868 15.4771 13.6441 15.5634C13.8014 15.6497 13.9325 15.7792 14.0373 15.9518C14.1422 16.1072 14.2121 16.2885 14.2471 16.4956C14.282 16.7028 14.2907 16.8927 14.2733 17.0653C14.2907 17.238 14.3432 17.3588 14.4306 17.4279C14.5354 17.4797 14.6578 17.5142 14.7976 17.5315C14.9549 17.5487 15.1034 17.5487 15.2432 17.5315C15.4005 17.5142 15.5403 17.5142 15.6627 17.5315C15.785 17.4624 15.8462 17.3675 15.8462 17.2466C15.8462 17.1085 15.8462 16.979 15.8462 16.8582C15.8462 16.6683 15.9336 16.5733 16.1083 16.5733C16.2831 16.5733 16.3705 16.6683 16.3705 16.8582V17.402C16.3181 17.6092 16.2219 17.7645 16.0821 17.8681C15.9598 17.9544 15.8112 18.0149 15.6365 18.0494C15.4617 18.0666 15.2782 18.0753 15.0859 18.0753C14.8937 18.058 14.7189 18.0494 14.5616 18.0494C14.317 18.0149 14.1422 17.9285 14.0373 17.7904C13.9325 17.6523 13.8538 17.4883 13.8014 17.2984C13.749 17.1085 13.714 16.9186 13.6965 16.7287C13.679 16.5215 13.6441 16.3316 13.5917 16.159C13.3994 16.1072 13.1984 16.064 12.9887 16.0295C12.7965 15.9777 12.6042 15.8914 12.412 15.7706C12.2197 15.667 12.0974 15.5375 12.045 15.3821C11.9925 15.2267 11.975 15.0714 11.9925 14.916C12.0275 14.7434 12.0886 14.5793 12.176 14.424C12.2634 14.2513 12.3421 14.0873 12.412 13.9319C12.3945 13.8974 12.4032 13.837 12.4382 13.7507C12.4906 13.578 12.5867 13.4572 12.7266 13.3881C12.744 13.1982 12.7528 13.0083 12.7528 12.8184C12.7528 12.6285 12.6829 12.4559 12.543 12.3005L12.5693 12.3523L12.2547 11.9898C11.9576 11.8171 11.7653 11.5927 11.6779 11.3165C11.608 11.023 11.5993 10.7209 11.6517 10.4101C11.7216 10.0994 11.8352 9.78862 11.9925 9.47787C12.1498 9.16712 12.3158 8.90816 12.4906 8.70099C12.6304 8.6492 12.6741 8.55425 12.6217 8.41614C12.5867 8.26077 12.578 8.12265 12.5955 8.00181C12.2459 7.8637 12.0275 7.622 11.9401 7.27672C11.8702 6.91418 11.8877 6.56891 11.9925 6.24089C11.975 5.86109 12.1149 5.58486 12.412 5.41223C12.7091 5.23959 13.0062 5.11011 13.3033 5.02379C13.4256 5.04105 13.5218 5.00652 13.5917 4.9202C13.679 4.83389 13.7664 4.79073 13.8538 4.79073L13.9063 4.73893V4.71304C13.9237 4.71304 13.9325 4.71304 13.9325 4.71304C13.9325 4.69577 13.9325 4.68714 13.9325 4.68714Z" fill="#778DA9"/>
<path d="M24.9433 5.04969L27.1717 8.6492L31.8118 10.9539L30.8418 15.2785L27.7222 13.5435L25.2055 18.7227L32.7818 18.153L35.8752 11.4718L29.4786 4.42818L35.0887 5.77477L34.7217 0L26.4376 2.43421L24.9433 5.04969ZM30.7632 2.84854C30.8506 2.8658 30.903 2.90896 30.9205 2.97802C30.9554 3.04707 30.9642 3.11613 30.9467 3.18519C30.9467 3.23698 30.9205 3.28877 30.868 3.34056C30.8156 3.37509 30.7457 3.38372 30.6583 3.36646C30.0816 3.22835 29.531 3.18519 29.0067 3.23698C28.7795 3.20245 28.5611 3.22835 28.3514 3.31466C28.1591 3.38372 27.9843 3.50457 27.827 3.67721C27.6872 3.83258 27.5911 4.01385 27.5387 4.22102C27.4862 4.42818 27.4862 4.64398 27.5387 4.86841C27.5212 5.00652 27.5562 5.11011 27.6435 5.17916C27.7309 5.23095 27.827 5.27411 27.9319 5.30864C28.0542 5.32591 28.1766 5.3518 28.2989 5.38633C28.4387 5.42086 28.5436 5.47265 28.6135 5.54171C28.8407 5.62802 29.0155 5.74887 29.1378 5.90425C29.2601 6.05962 29.3388 6.24089 29.3738 6.44806C29.4262 6.63796 29.4437 6.84513 29.4262 7.06956C29.4087 7.29399 29.3912 7.50115 29.3738 7.69106C29.4087 7.84643 29.3912 8.00181 29.3213 8.15718C29.2514 8.29529 29.2602 8.44204 29.3475 8.59741C29.6272 8.70099 29.9155 8.76142 30.2126 8.77868C30.5098 8.77868 30.7981 8.78731 31.0778 8.80458C31.3749 8.82184 31.6632 8.865 31.9429 8.93406C32.24 8.98585 32.5109 9.1067 32.7555 9.2966C32.8954 9.22754 33.009 9.2707 33.0963 9.42608C33.1837 9.59872 33.2624 9.77135 33.3323 9.94399C33.4197 10.1166 33.4459 10.2979 33.4109 10.4878C33.4634 10.7468 33.4459 11.0057 33.3585 11.2647C33.2886 11.5236 33.2099 11.7826 33.1226 12.0416C33.0526 12.3005 33.009 12.5595 32.9915 12.8184C32.974 13.0601 33.0526 13.2932 33.2274 13.5176C33.4371 13.9319 33.4983 14.3376 33.4109 14.7347C33.341 15.1145 33.175 15.4598 32.9128 15.7706C32.6507 16.064 32.3274 16.2971 31.9429 16.4697C31.5584 16.6424 31.1564 16.7114 30.737 16.6769C30.6496 16.6769 30.5797 16.6596 30.5272 16.6251C30.4748 16.5733 30.4398 16.5129 30.4224 16.4438C30.4224 16.3748 30.4398 16.3144 30.4748 16.2626C30.5272 16.1935 30.5971 16.159 30.6845 16.159C30.9467 16.1417 31.2001 16.0986 31.4448 16.0295C31.7069 15.9605 31.9516 15.8482 32.1788 15.6929C32.5283 15.503 32.7468 15.244 32.8342 14.916C32.9216 14.588 32.9216 14.2513 32.8342 13.9061C32.5895 13.6644 32.4584 13.4054 32.441 13.1292C32.4235 12.853 32.4497 12.5681 32.5196 12.2746C32.5895 11.9811 32.6682 11.6876 32.7555 11.3942C32.8429 11.0834 32.8779 10.7899 32.8604 10.5137C32.9128 10.3756 32.9041 10.2547 32.8342 10.1512C32.7643 10.0476 32.7031 9.92673 32.6507 9.78862C32.5808 9.78862 32.5283 9.77135 32.4934 9.73683C32.2312 9.5124 31.9341 9.38292 31.6021 9.34839C31.27 9.31386 30.9292 9.2966 30.5797 9.2966C30.2476 9.2966 29.9243 9.2707 29.6097 9.21891C29.2951 9.16712 29.033 8.99448 28.8232 8.70099C28.7883 8.40751 28.797 8.12265 28.8494 7.84643C28.9019 7.55295 28.9194 7.25946 28.9019 6.96597C28.9543 6.77607 28.9456 6.61206 28.8757 6.47395C28.8232 6.33584 28.7358 6.22363 28.6135 6.13731C28.4912 6.05099 28.3513 5.98193 28.1941 5.93014C28.0368 5.87835 27.8795 5.83519 27.7222 5.80066C27.3726 5.71434 27.1542 5.53307 27.0668 5.25685C26.9794 4.98063 26.9532 4.69578 26.9881 4.40229C27.0056 3.9189 27.1454 3.55636 27.4076 3.31466C27.6872 3.05571 28.0106 2.88307 28.3776 2.79675C28.7621 2.69316 29.164 2.65864 29.5835 2.69317C30.0204 2.72769 30.4136 2.77948 30.7632 2.84854Z" fill="#778DA9"/>
<path d="M47.7227 1.78681L47.9586 18.7227H51.2093V12.9997L57.9729 10.0217L58.5759 1.78681L54.3552 0L47.7227 1.78681ZM56.033 5.77477L51.2093 8.93406V3.93616L56.033 5.77477ZM48.7975 12.0416C48.7626 11.9898 48.7626 11.9466 48.7975 11.9121V11.0575C48.78 10.8503 48.815 10.6691 48.9024 10.5137C49.0072 10.3411 49.1208 10.1857 49.2432 10.0476C49.3655 9.8922 49.4791 9.73683 49.584 9.58145C49.7063 9.42608 49.7762 9.25344 49.7937 9.06353C49.8636 8.80458 49.8374 8.58878 49.7151 8.41614C49.6102 8.2435 49.4791 8.07949 49.3218 7.92412C49.1645 7.76874 49.0247 7.60474 48.9024 7.4321C48.78 7.25946 48.7451 7.04366 48.7975 6.7847C48.7101 6.49122 48.7713 6.25816 48.981 6.08552C49.1908 5.91288 49.4092 5.7834 49.6364 5.69708C49.6364 5.5417 49.6364 5.38633 49.6364 5.23095C49.6539 5.07558 49.6452 4.92021 49.6102 4.76483C49.418 4.76483 49.2432 4.64398 49.0859 4.40229C48.9286 4.14333 48.8587 3.90164 48.8762 3.67721C48.8762 3.31466 48.9723 3.02981 49.1645 2.82264C49.3568 2.59821 49.5927 2.44284 49.8724 2.35652C50.152 2.2702 50.4491 2.2443 50.7637 2.27883C51.0957 2.2961 51.3929 2.36515 51.655 2.486C51.7249 2.52053 51.7686 2.57232 51.7861 2.64137C51.8036 2.71043 51.7948 2.77948 51.7599 2.84854C51.7424 2.90033 51.6987 2.94349 51.6288 2.97802C51.5764 2.99528 51.5152 2.98665 51.4453 2.95212C51.2705 2.8658 51.087 2.81401 50.8948 2.79675C50.7025 2.77948 50.5103 2.78812 50.318 2.82264C50.1258 2.80538 49.951 2.84854 49.7937 2.95212C49.6364 3.05571 49.5228 3.19382 49.4529 3.36646C49.4005 3.5391 49.3917 3.71173 49.4267 3.88437C49.4616 4.05701 49.5665 4.19512 49.7413 4.29871C49.8986 4.3505 50.0034 4.43682 50.0559 4.55766C50.1258 4.66125 50.1607 4.79073 50.1607 4.9461C50.1782 5.10148 50.1782 5.25685 50.1607 5.41223C50.1432 5.5676 50.1432 5.70571 50.1607 5.82656C50.1607 5.86109 50.152 5.90425 50.1345 5.95604C50.117 5.99057 50.0908 6.01646 50.0559 6.03373C49.951 6.12004 49.8287 6.1891 49.6889 6.24089C49.549 6.27542 49.4354 6.34447 49.348 6.44806C49.3306 6.58617 49.3131 6.73291 49.2956 6.88829C49.2956 7.0264 49.3393 7.15588 49.4267 7.27672C49.6714 7.41483 49.8636 7.59611 50.0034 7.82054C50.1607 8.04497 50.2569 8.28666 50.2918 8.54562C50.3442 8.80458 50.3355 9.07217 50.2656 9.34839C50.2132 9.62461 50.0996 9.87494 49.9248 10.0994C49.5752 10.3238 49.383 10.6 49.348 10.928C49.3131 11.2388 49.3044 11.5754 49.3218 11.938C49.3393 11.9725 49.348 12.007 49.348 12.0416C49.348 12.0588 49.3568 12.0847 49.3743 12.1192C49.5665 12.2228 49.7413 12.3696 49.8986 12.5595C50.0733 12.7321 50.1957 12.9306 50.2656 13.1551C50.3355 13.3622 50.3442 13.578 50.2918 13.8025C50.2394 14.0096 50.1083 14.1995 49.8986 14.3722C49.6889 14.4758 49.5316 14.6139 49.4267 14.7865C49.3218 14.9591 49.2519 15.1491 49.217 15.3562C49.1995 15.5461 49.1995 15.7533 49.217 15.9777C49.2519 16.2021 49.2869 16.4179 49.3218 16.6251C49.4267 16.6424 49.5752 16.651 49.7675 16.651C49.9597 16.651 50.0996 16.582 50.1869 16.4438C50.2918 16.3057 50.4141 16.2885 50.554 16.392C50.6938 16.4956 50.7113 16.6165 50.6064 16.7546C50.4141 16.9963 50.152 17.1344 49.8199 17.1689C49.5053 17.2035 49.217 17.1603 48.9548 17.0394C48.7975 16.6596 48.7014 16.2626 48.6664 15.8482C48.649 15.4166 48.7364 15.0023 48.9286 14.6052C48.9461 14.4844 48.9898 14.3894 49.0597 14.3204C49.1471 14.2513 49.2345 14.1909 49.3218 14.1391C49.4267 14.0701 49.5228 14.001 49.6102 13.9319C49.6976 13.8629 49.7588 13.7679 49.7937 13.6471C49.8287 13.4399 49.7937 13.2759 49.6889 13.1551C49.6015 13.0342 49.4879 12.922 49.348 12.8184C49.2257 12.6976 49.1034 12.5854 48.981 12.4818C48.8762 12.3609 48.815 12.2142 48.7975 12.0416Z" fill="#778DA9"/>
<path d="M59.5485 8.36435L59.7844 15.3821L62.4322 18.7227H67.5966L72.0008 15.5375L72.4203 9.2966V5.77477L69.0123 1.52785L63.7692 0.595604L61.8292 2.61548L61.9341 2.69317L59.9679 5.17916L59.5485 8.36435ZM68.5404 15.2785L64.0838 15.6929L62.8517 9.50376L64.7654 4.27281L69.3793 7.04366L68.5404 15.2785ZM63.0352 4.68714L63.0089 4.71304V4.3505C62.8342 4.02248 62.7992 3.68584 62.9041 3.34056C63.0264 2.97802 63.2099 2.6759 63.4546 2.43421C63.8741 2.36515 64.3284 2.32199 64.8178 2.30473C65.3072 2.28746 65.7091 2.44284 66.0237 2.77085C66.0412 2.77085 66.0499 2.77948 66.0499 2.79675C66.0499 2.79675 66.0587 2.79675 66.0761 2.79675C66.2684 2.79675 66.3645 2.88307 66.3645 3.05571C66.3645 3.22835 66.2684 3.31466 66.0761 3.31466H65.9188C65.6567 3.00391 65.3159 2.84854 64.8964 2.84854C64.477 2.83128 64.0838 2.84854 63.7168 2.90033C63.5944 3.03844 63.4896 3.21108 63.4022 3.41825C63.4022 3.47004 63.3934 3.53046 63.376 3.59952C63.376 3.65131 63.376 3.7031 63.376 3.75489C63.376 3.78942 63.376 3.82395 63.376 3.85848C63.3934 3.893 63.4022 3.92753 63.4022 3.96206C63.4896 4.08291 63.5332 4.21239 63.5332 4.3505C63.5332 4.48861 63.5332 4.62672 63.5332 4.76483C63.4808 5.05832 63.306 5.25685 63.0089 5.36043C62.7293 5.44675 62.4672 5.53307 62.2225 5.61939C61.9079 5.67118 61.7244 5.83519 61.672 6.11141C61.6195 6.37037 61.5758 6.6207 61.5409 6.86239C61.5059 7.06956 61.5583 7.23356 61.6982 7.35441C61.8555 7.45799 62.0128 7.55295 62.17 7.63927C62.2749 7.70832 62.3099 7.79464 62.2749 7.89822C62.24 8.07086 62.24 8.2435 62.2749 8.41614C62.3099 8.57152 62.2836 8.73552 62.1963 8.90816C61.8467 9.20165 61.5846 9.57282 61.4098 10.0217C61.2525 10.4533 61.2176 10.8935 61.3049 11.3424C61.7244 11.5323 62.0215 11.843 62.1963 12.2746C62.3885 12.6889 62.4409 13.1119 62.3536 13.5435C62.3536 13.6644 62.3011 13.742 62.1963 13.7766C62.1788 13.7938 62.1613 13.8025 62.1438 13.8025C62.1438 13.8025 62.1351 13.8111 62.1176 13.8284C62.1351 14.0183 62.0827 14.1909 61.9603 14.3463C61.8555 14.4844 61.7593 14.6398 61.672 14.8124C61.5671 15.0023 61.5846 15.1577 61.7244 15.2785C61.8817 15.3994 62.0302 15.4771 62.17 15.5116C62.3972 15.4598 62.5895 15.4771 62.7468 15.5634C62.9041 15.6497 63.0352 15.7792 63.14 15.9518C63.2449 16.1072 63.3148 16.2885 63.3497 16.4956C63.3847 16.7028 63.3934 16.8927 63.376 17.0653C63.3934 17.238 63.4459 17.3588 63.5332 17.4279C63.6381 17.4797 63.7604 17.5142 63.9003 17.5315C64.0576 17.5487 64.2061 17.5487 64.3459 17.5315C64.5032 17.5142 64.643 17.5142 64.7654 17.5315C64.8877 17.4624 64.9489 17.3675 64.9489 17.2466C64.9489 17.1085 64.9489 16.979 64.9489 16.8582C64.9489 16.6683 65.0363 16.5733 65.211 16.5733C65.3858 16.5733 65.4732 16.6683 65.4732 16.8582V17.402C65.4208 17.6092 65.3246 17.7645 65.1848 17.8681C65.0625 17.9544 64.9139 18.0149 64.7392 18.0494C64.5644 18.0666 64.3809 18.0753 64.1886 18.0753C63.9964 18.058 63.8216 18.0494 63.6643 18.0494C63.4196 18.0149 63.2449 17.9285 63.14 17.7904C63.0352 17.6523 62.9565 17.4883 62.9041 17.2984C62.8516 17.1085 62.8167 16.9186 62.7992 16.7287C62.7817 16.5215 62.7468 16.3316 62.6944 16.159C62.5021 16.1072 62.3011 16.064 62.0914 16.0295C61.8992 15.9777 61.7069 15.8914 61.5147 15.7706C61.3224 15.667 61.2001 15.5375 61.1476 15.3821C61.0952 15.2267 61.0777 15.0714 61.0952 14.916C61.1302 14.7434 61.1913 14.5793 61.2787 14.424C61.3661 14.2513 61.4448 14.0873 61.5147 13.9319C61.4972 13.8974 61.5059 13.837 61.5409 13.7507C61.5933 13.578 61.6894 13.4572 61.8292 13.3881C61.8467 13.1982 61.8555 13.0083 61.8555 12.8184C61.8555 12.6285 61.7856 12.4559 61.6457 12.3005L61.672 12.3523L61.3574 11.9898C61.0603 11.8171 60.868 11.5927 60.7806 11.3165C60.7107 11.023 60.702 10.7209 60.7544 10.4101C60.8243 10.0994 60.9379 9.78862 61.0952 9.47787C61.2525 9.16712 61.4185 8.90816 61.5933 8.70099C61.7331 8.6492 61.7768 8.55425 61.7244 8.41614C61.6894 8.26077 61.6807 8.12265 61.6982 8.00181C61.3486 7.8637 61.1302 7.622 61.0428 7.27672C60.9729 6.91418 60.9903 6.56891 61.0952 6.24089C61.0777 5.86109 61.2176 5.58486 61.5147 5.41223C61.8118 5.23959 62.1089 5.11011 62.406 5.02379C62.5283 5.04105 62.6244 5.00652 62.6944 4.9202C62.7817 4.83389 62.8691 4.79073 62.9565 4.79073L63.0089 4.73893V4.71304C63.0264 4.71304 63.0352 4.71304 63.0352 4.71304C63.0352 4.69577 63.0352 4.68714 63.0352 4.68714Z" fill="#778DA9"/>
<path d="M73.7052 0.595604L73.8101 18.7227H81.5961L82.9593 14.424L76.6676 15.408L77.7162 3.18519L77.6638 3.15929L73.7052 0.595604ZM74.8063 17.3502C74.7888 17.3157 74.7801 17.2898 74.7801 17.2725C74.7975 17.2552 74.8063 17.238 74.8063 17.2207C74.8238 16.9445 74.8238 16.6683 74.8063 16.392C74.7888 16.1158 74.7975 15.8396 74.8325 15.5634C75.0247 15.1663 75.1646 14.7606 75.2519 14.3463C75.3568 13.9147 75.3481 13.4745 75.2257 13.0256C75.016 12.8357 74.8762 12.6026 74.8063 12.3264C74.7364 12.0329 74.7276 11.7481 74.7801 11.4718C74.8325 11.1784 74.9461 10.9194 75.1209 10.695C75.2956 10.4533 75.5141 10.2806 75.7763 10.1771V9.21891C75.7763 9.20165 75.7675 9.18438 75.75 9.16712C75.75 9.13259 75.75 9.11533 75.75 9.11533C75.6627 9.02901 75.5578 8.95995 75.4354 8.90816C75.3131 8.85637 75.2083 8.79595 75.1209 8.72689C74.9461 8.53699 74.8325 8.31256 74.7801 8.0536C74.7451 7.79464 74.7539 7.54431 74.8063 7.30262C74.8762 7.04366 74.981 6.8106 75.1209 6.60343C75.2782 6.379 75.4791 6.215 75.7238 6.11141C75.7413 5.99057 75.7413 5.86972 75.7238 5.74887C75.7238 5.62802 75.6714 5.52444 75.5665 5.43812C75.2869 5.28275 75.0947 5.05832 74.9898 4.76483C74.9024 4.45408 74.8937 4.16059 74.9636 3.88437C75.0335 3.59089 75.1733 3.35782 75.383 3.18519C75.6102 2.99528 75.9073 2.93486 76.2743 3.00391C76.3617 3.02118 76.4229 3.06434 76.4579 3.13339C76.5103 3.18519 76.5278 3.24561 76.5103 3.31466C76.5103 3.36646 76.4841 3.41825 76.4316 3.47004C76.3792 3.52183 76.3093 3.5391 76.2219 3.52183L76.0384 3.49594C75.8811 3.49594 75.7588 3.53046 75.6714 3.59952C75.584 3.66857 75.5228 3.76353 75.4879 3.88437C75.4529 4.00522 75.4354 4.1347 75.4354 4.27281C75.4529 4.39366 75.4791 4.50587 75.5141 4.60946C75.6364 4.7303 75.7588 4.86841 75.8811 5.02379C76.0034 5.1619 76.0996 5.31727 76.1695 5.48991C76.2569 5.64529 76.2918 5.80929 76.2743 5.98193C76.2743 6.15457 76.2132 6.32721 76.0908 6.49985C75.7413 6.63796 75.5054 6.87965 75.383 7.22493C75.2607 7.55295 75.2607 7.88959 75.383 8.23487C75.383 8.32119 75.4267 8.36435 75.5141 8.36435C75.6015 8.36435 75.6714 8.38161 75.7238 8.41614C75.9335 8.50246 76.0734 8.61467 76.1433 8.75279C76.2307 8.8909 76.2831 9.0549 76.3006 9.24481C76.318 9.41745 76.318 9.59872 76.3006 9.78862C76.2831 9.97852 76.2831 10.1598 76.3006 10.3324C76.3006 10.4533 76.2481 10.531 76.1433 10.5655C75.7937 10.6863 75.5316 10.928 75.3568 11.2906C75.1995 11.6359 75.1908 11.9811 75.3306 12.3264C75.4879 12.4645 75.6015 12.6285 75.6714 12.8184C75.7588 12.9911 75.8112 13.181 75.8287 13.3881C75.8462 13.578 75.8462 13.7766 75.8287 13.9837C75.8112 14.1909 75.7937 14.3894 75.7763 14.5793C75.5141 14.9937 75.3743 15.4425 75.3568 15.9259C75.3393 16.3921 75.3306 16.8582 75.3306 17.3243C75.3655 17.4451 75.4267 17.5228 75.5141 17.5574C75.6015 17.5919 75.6976 17.6178 75.8025 17.635C75.9248 17.635 76.0384 17.635 76.1433 17.635C76.2656 17.635 76.3792 17.6437 76.4841 17.6609C76.6763 17.6955 76.7812 17.635 76.7987 17.4797C76.8161 17.307 76.8249 17.1517 76.8249 17.0136C76.8249 16.8236 76.9123 16.7287 77.087 16.7287C77.2618 16.7287 77.3492 16.8236 77.3492 17.0136V17.3761C77.3492 17.635 77.2793 17.825 77.1395 17.9458C76.9996 18.0494 76.8249 18.1184 76.6152 18.153C76.4229 18.1702 76.2132 18.1789 75.986 18.1789C75.7763 18.1616 75.584 18.1616 75.4092 18.1789C75.3568 18.1098 75.2869 18.0494 75.1995 17.9976C75.1296 17.9458 75.0597 17.894 74.9898 17.8422C74.8675 17.8077 74.8063 17.7214 74.8063 17.5833C74.7713 17.5315 74.7713 17.4538 74.8063 17.3502Z" fill="#778DA9"/>
<path d="M84.1248 0.595604L84.2297 18.7227H92.0157L93.3789 14.424L87.0872 15.408L88.1358 3.18519L88.0834 3.15929L84.1248 0.595604ZM85.2259 17.3502C85.2084 17.3157 85.1997 17.2898 85.1997 17.2725C85.2171 17.2552 85.2259 17.238 85.2259 17.2207C85.2434 16.9445 85.2434 16.6683 85.2259 16.392C85.2084 16.1158 85.2171 15.8396 85.2521 15.5634C85.4443 15.1663 85.5842 14.7606 85.6715 14.3463C85.7764 13.9147 85.7677 13.4745 85.6453 13.0256C85.4356 12.8357 85.2958 12.6026 85.2259 12.3264C85.156 12.0329 85.1472 11.7481 85.1997 11.4718C85.2521 11.1784 85.3657 10.9194 85.5405 10.695C85.7152 10.4533 85.9337 10.2806 86.1959 10.1771V9.21891C86.1959 9.20165 86.1871 9.18438 86.1696 9.16712C86.1696 9.13259 86.1696 9.11533 86.1696 9.11533C86.0823 9.02901 85.9774 8.95995 85.855 8.90816C85.7327 8.85637 85.6279 8.79595 85.5405 8.72689C85.3657 8.53699 85.2521 8.31256 85.1997 8.0536C85.1647 7.79464 85.1735 7.54431 85.2259 7.30262C85.2958 7.04366 85.4007 6.8106 85.5405 6.60343C85.6978 6.379 85.8987 6.215 86.1434 6.11141C86.1609 5.99057 86.1609 5.86972 86.1434 5.74887C86.1434 5.62802 86.091 5.52444 85.9861 5.43812C85.7065 5.28275 85.5143 5.05832 85.4094 4.76483C85.322 4.45408 85.3133 4.16059 85.3832 3.88437C85.4531 3.59089 85.5929 3.35782 85.8026 3.18519C86.0298 2.99528 86.3269 2.93486 86.6939 3.00391C86.7813 3.02118 86.8425 3.06434 86.8775 3.13339C86.9299 3.18519 86.9474 3.24561 86.9299 3.31466C86.9299 3.36646 86.9037 3.41825 86.8512 3.47004C86.7988 3.52183 86.7289 3.5391 86.6415 3.52183L86.458 3.49594C86.3007 3.49594 86.1784 3.53046 86.091 3.59952C86.0036 3.66857 85.9424 3.76353 85.9075 3.88437C85.8725 4.00522 85.855 4.1347 85.855 4.27281C85.8725 4.39366 85.8987 4.50587 85.9337 4.60946C86.056 4.7303 86.1784 4.86841 86.3007 5.02379C86.423 5.1619 86.5192 5.31727 86.5891 5.48991C86.6765 5.64529 86.7114 5.80929 86.6939 5.98193C86.6939 6.15457 86.6328 6.32721 86.5104 6.49985C86.1609 6.63796 85.925 6.87965 85.8026 7.22493C85.6803 7.55295 85.6803 7.88959 85.8026 8.23487C85.8026 8.32119 85.8463 8.36435 85.9337 8.36435C86.0211 8.36435 86.091 8.38161 86.1434 8.41614C86.3531 8.50246 86.493 8.61467 86.5629 8.75279C86.6503 8.8909 86.7027 9.0549 86.7202 9.24481C86.7376 9.41745 86.7376 9.59872 86.7202 9.78862C86.7027 9.97852 86.7027 10.1598 86.7202 10.3324C86.7202 10.4533 86.6677 10.531 86.5629 10.5655C86.2133 10.6863 85.9512 10.928 85.7764 11.2906C85.6191 11.6359 85.6104 11.9811 85.7502 12.3264C85.9075 12.4645 86.0211 12.6285 86.091 12.8184C86.1784 12.9911 86.2308 13.181 86.2483 13.3881C86.2658 13.578 86.2658 13.7766 86.2483 13.9837C86.2308 14.1909 86.2133 14.3894 86.1959 14.5793C85.9337 14.9937 85.7939 15.4425 85.7764 15.9259C85.7589 16.3921 85.7502 16.8582 85.7502 17.3243C85.7851 17.4451 85.8463 17.5228 85.9337 17.5574C86.0211 17.5919 86.1172 17.6178 86.2221 17.635C86.3444 17.635 86.458 17.635 86.5629 17.635C86.6852 17.635 86.7988 17.6437 86.9037 17.6609C87.0959 17.6955 87.2008 17.635 87.2183 17.4797C87.2357 17.307 87.2445 17.1517 87.2445 17.0136C87.2445 16.8236 87.3319 16.7287 87.5066 16.7287C87.6814 16.7287 87.7688 16.8236 87.7688 17.0136V17.3761C87.7688 17.635 87.6989 17.825 87.5591 17.9458C87.4192 18.0494 87.2445 18.1184 87.0347 18.153C86.8425 18.1702 86.6328 18.1789 86.4056 18.1789C86.1958 18.1616 86.0036 18.1616 85.8288 18.1789C85.7764 18.1098 85.7065 18.0494 85.6191 17.9976C85.5492 17.9458 85.4793 17.894 85.4094 17.8422C85.2871 17.8077 85.2259 17.7214 85.2259 17.5833C85.1909 17.5315 85.1909 17.4538 85.2259 17.3502Z" fill="#778DA9"/>
<path d="M94.5706 8.36435L94.8066 15.3821L97.4543 18.7227H102.619L107.023 15.5375L107.442 9.2966V5.77477L104.034 1.52785L98.7913 0.595604L96.8514 2.61548L96.9563 2.69317L94.9901 5.17916L94.5706 8.36435ZM103.563 15.2785L99.1059 15.6929L97.8738 9.50376L99.7875 4.27281L104.401 7.04366L103.563 15.2785ZM98.0573 4.68714L98.0311 4.71304V4.3505C97.8563 4.02248 97.8214 3.68584 97.9262 3.34056C98.0486 2.97802 98.2321 2.6759 98.4768 2.43421C98.8962 2.36515 99.3506 2.32199 99.8399 2.30473C100.329 2.28746 100.731 2.44284 101.046 2.77085C101.063 2.77085 101.072 2.77948 101.072 2.79675C101.072 2.79675 101.081 2.79675 101.098 2.79675C101.291 2.79675 101.387 2.88307 101.387 3.05571C101.387 3.22835 101.291 3.31466 101.098 3.31466H100.941C100.679 3.00391 100.338 2.84854 99.9186 2.84854C99.4991 2.83128 99.1059 2.84854 98.7389 2.90033C98.6166 3.03844 98.5117 3.21108 98.4243 3.41825C98.4243 3.47004 98.4156 3.53046 98.3981 3.59952C98.3981 3.65131 98.3981 3.7031 98.3981 3.75489C98.3981 3.78942 98.3981 3.82395 98.3981 3.85848C98.4156 3.893 98.4243 3.92753 98.4243 3.96206C98.5117 4.08291 98.5554 4.21239 98.5554 4.3505C98.5554 4.48861 98.5554 4.62672 98.5554 4.76483C98.503 5.05832 98.3282 5.25685 98.0311 5.36043C97.7514 5.44675 97.4893 5.53307 97.2446 5.61939C96.93 5.67118 96.7465 5.83519 96.6941 6.11141C96.6417 6.37037 96.598 6.6207 96.563 6.86239C96.5281 7.06956 96.5805 7.23356 96.7203 7.35441C96.8776 7.45799 97.0349 7.55295 97.1922 7.63927C97.2971 7.70832 97.332 7.79464 97.2971 7.89822C97.2621 8.07086 97.2621 8.2435 97.2971 8.41614C97.332 8.57152 97.3058 8.73552 97.2184 8.90816C96.8689 9.20165 96.6067 9.57282 96.4319 10.0217C96.2747 10.4533 96.2397 10.8935 96.3271 11.3424C96.7465 11.5323 97.0436 11.843 97.2184 12.2746C97.4107 12.6889 97.4631 13.1119 97.3757 13.5435C97.3757 13.6644 97.3233 13.742 97.2184 13.7766C97.2009 13.7938 97.1834 13.8025 97.166 13.8025C97.166 13.8025 97.1572 13.8111 97.1398 13.8284C97.1572 14.0183 97.1048 14.1909 96.9825 14.3463C96.8776 14.4844 96.7815 14.6398 96.6941 14.8124C96.5892 15.0023 96.6067 15.1577 96.7465 15.2785C96.9038 15.3994 97.0524 15.4771 97.1922 15.5116C97.4194 15.4598 97.6116 15.4771 97.7689 15.5634C97.9262 15.6497 98.0573 15.7792 98.1622 15.9518C98.267 16.1072 98.3369 16.2885 98.3719 16.4956C98.4068 16.7028 98.4156 16.8927 98.3981 17.0653C98.4156 17.238 98.468 17.3588 98.5554 17.4279C98.6603 17.4797 98.7826 17.5142 98.9224 17.5315C99.0797 17.5487 99.2283 17.5487 99.3681 17.5315C99.5254 17.5142 99.6652 17.5142 99.7875 17.5315C99.9099 17.4624 99.971 17.3675 99.971 17.2466C99.971 17.1085 99.971 16.979 99.971 16.8582C99.971 16.6683 100.058 16.5733 100.233 16.5733C100.408 16.5733 100.495 16.6683 100.495 16.8582V17.402C100.443 17.6092 100.347 17.7645 100.207 17.8681C100.085 17.9544 99.9361 18.0149 99.7613 18.0494C99.5865 18.0666 99.403 18.0753 99.2108 18.0753C99.0185 18.058 98.8438 18.0494 98.6865 18.0494C98.4418 18.0149 98.267 17.9285 98.1622 17.7904C98.0573 17.6523 97.9787 17.4883 97.9262 17.2984C97.8738 17.1085 97.8388 16.9186 97.8214 16.7287C97.8039 16.5215 97.7689 16.3316 97.7165 16.159C97.5243 16.1072 97.3233 16.064 97.1135 16.0295C96.9213 15.9777 96.729 15.8914 96.5368 15.7706C96.3446 15.667 96.2222 15.5375 96.1698 15.3821C96.1174 15.2267 96.0999 15.0714 96.1174 14.916C96.1523 14.7434 96.2135 14.5793 96.3009 14.424C96.3883 14.2513 96.4669 14.0873 96.5368 13.9319C96.5193 13.8974 96.5281 13.837 96.563 13.7507C96.6154 13.578 96.7116 13.4572 96.8514 13.3881C96.8689 13.1982 96.8776 13.0083 96.8776 12.8184C96.8776 12.6285 96.8077 12.4559 96.6679 12.3005L96.6941 12.3523L96.3795 11.9898C96.0824 11.8171 95.8902 11.5927 95.8028 11.3165C95.7329 11.023 95.7241 10.7209 95.7766 10.4101C95.8465 10.0994 95.9601 9.78862 96.1174 9.47787C96.2747 9.16712 96.4407 8.90816 96.6155 8.70099C96.7553 8.6492 96.799 8.55425 96.7465 8.41614C96.7116 8.26077 96.7028 8.12265 96.7203 8.00181C96.3708 7.8637 96.1523 7.622 96.0649 7.27672C95.995 6.91418 96.0125 6.56891 96.1174 6.24089C96.0999 5.86109 96.2397 5.58486 96.5368 5.41223C96.8339 5.23959 97.131 5.11011 97.4281 5.02379C97.5505 5.04105 97.6466 5.00652 97.7165 4.9202C97.8039 4.83389 97.8913 4.79073 97.9787 4.79073L98.0311 4.73893V4.71304C98.0486 4.71304 98.0573 4.71304 98.0573 4.71304C98.0573 4.69577 98.0573 4.68714 98.0573 4.68714Z" fill="#778DA9"/>
<path d="M109.068 5.04969L111.296 8.6492L115.937 10.9539L114.967 15.2785L111.847 13.5435L109.33 18.7227L116.907 18.153L120 11.4718L113.603 4.42818L119.214 5.77477L118.847 0L110.562 2.43421L109.068 5.04969ZM114.888 2.84854C114.975 2.8658 115.028 2.90896 115.045 2.97802C115.08 3.04707 115.089 3.11613 115.072 3.18519C115.072 3.23698 115.045 3.28877 114.993 3.34056C114.94 3.37509 114.871 3.38372 114.783 3.36646C114.206 3.22835 113.656 3.18519 113.132 3.23698C112.904 3.20245 112.686 3.22835 112.476 3.31466C112.284 3.38372 112.109 3.50457 111.952 3.67721C111.812 3.83258 111.716 4.01385 111.664 4.22102C111.611 4.42818 111.611 4.64398 111.664 4.86841C111.646 5.00652 111.681 5.11011 111.768 5.17916C111.856 5.23095 111.952 5.27411 112.057 5.30864C112.179 5.32591 112.301 5.3518 112.424 5.38633C112.564 5.42086 112.668 5.47265 112.738 5.54171C112.966 5.62802 113.14 5.74887 113.263 5.90425C113.385 6.05962 113.464 6.24089 113.499 6.44806C113.551 6.63796 113.568 6.84513 113.551 7.06956C113.534 7.29399 113.516 7.50115 113.499 7.69106C113.534 7.84643 113.516 8.00181 113.446 8.15718C113.376 8.29529 113.385 8.44204 113.472 8.59741C113.752 8.70099 114.04 8.76142 114.337 8.77868C114.635 8.77868 114.923 8.78731 115.203 8.80458C115.5 8.82184 115.788 8.865 116.068 8.93406C116.365 8.98585 116.636 9.1067 116.88 9.2966C117.02 9.22754 117.134 9.2707 117.221 9.42608C117.309 9.59872 117.387 9.77135 117.457 9.94399C117.545 10.1166 117.571 10.2979 117.536 10.4878C117.588 10.7468 117.571 11.0057 117.483 11.2647C117.413 11.5236 117.335 11.7826 117.247 12.0416C117.177 12.3005 117.134 12.5595 117.116 12.8184C117.099 13.0601 117.177 13.2932 117.352 13.5176C117.562 13.9319 117.623 14.3376 117.536 14.7347C117.466 15.1145 117.3 15.4598 117.038 15.7706C116.776 16.064 116.452 16.2971 116.068 16.4697C115.683 16.6424 115.281 16.7114 114.862 16.6769C114.774 16.6769 114.704 16.6596 114.652 16.6251C114.6 16.5733 114.565 16.5129 114.547 16.4438C114.547 16.3748 114.565 16.3144 114.6 16.2626C114.652 16.1935 114.722 16.159 114.809 16.159C115.072 16.1417 115.325 16.0986 115.57 16.0295C115.832 15.9605 116.076 15.8482 116.304 15.6929C116.653 15.503 116.872 15.244 116.959 14.916C117.046 14.588 117.046 14.2513 116.959 13.9061C116.714 13.6644 116.583 13.4054 116.566 13.1292C116.548 12.853 116.575 12.5681 116.644 12.2746C116.714 11.9811 116.793 11.6876 116.88 11.3942C116.968 11.0834 117.003 10.7899 116.985 10.5137C117.038 10.3756 117.029 10.2547 116.959 10.1512C116.889 10.0476 116.828 9.92673 116.776 9.78862C116.706 9.78862 116.653 9.77135 116.618 9.73683C116.356 9.5124 116.059 9.38292 115.727 9.34839C115.395 9.31386 115.054 9.2966 114.704 9.2966C114.372 9.2966 114.049 9.2707 113.735 9.21891C113.42 9.16712 113.158 8.99448 112.948 8.70099C112.913 8.40751 112.922 8.12265 112.974 7.84643C113.027 7.55295 113.044 7.25946 113.027 6.96597C113.079 6.77607 113.07 6.61206 113 6.47395C112.948 6.33584 112.861 6.22363 112.738 6.13731C112.616 6.05099 112.476 5.98193 112.319 5.93014C112.162 5.87835 112.004 5.83519 111.847 5.80066C111.497 5.71434 111.279 5.53307 111.192 5.25685C111.104 4.98063 111.078 4.69578 111.113 4.40229C111.13 3.9189 111.27 3.55636 111.532 3.31466C111.812 3.05571 112.135 2.88307 112.502 2.79675C112.887 2.69316 113.289 2.65864 113.708 2.69317C114.145 2.72769 114.538 2.77948 114.888 2.84854Z" fill="#778DA9"/>
<path d="M8.35391 34.6874H8.48499L8.56363 33.3927L14.5932 35.2313L13.1513 42.1195L17.7652 43L17.8963 24.8729L13.7281 25.6498L14.0951 28.3689L14.5932 31.9684L8.79957 29.7154L10.4774 26.0123L5.75858 24.8729L4.68375 32.9524L6.70234 42.7669L9.90062 42.1454L8.35391 34.6874ZM8.79957 26.4267C8.99182 26.4267 9.08794 26.513 9.08794 26.6856C9.08794 26.8583 8.99182 26.9446 8.79957 26.9446C8.64228 26.9619 8.48499 26.9705 8.32769 26.9705C8.1704 26.9532 8.01311 26.9619 7.85582 26.9964C7.68105 26.9964 7.55871 27.0568 7.4888 27.1777C7.41889 27.2985 7.32277 27.3935 7.20043 27.4625C7.00818 27.756 6.93828 28.0408 6.99071 28.3171C7.04314 28.576 7.13052 28.8436 7.25286 29.1198C7.3752 29.3961 7.48006 29.6723 7.56745 29.9485C7.67231 30.2075 7.68979 30.4837 7.61988 30.7772C7.58492 30.9843 7.4888 31.1397 7.33151 31.2433C7.17422 31.3469 6.99945 31.4332 6.8072 31.5023L6.85963 31.4505L6.41397 31.7871C6.27415 31.8216 6.19551 31.908 6.17803 32.0461C6.16055 32.1842 6.10812 32.2964 6.02074 32.3827C5.95083 32.5726 5.92461 32.7539 5.94209 32.9265C5.95957 33.0992 5.97705 33.2718 5.99452 33.4444C6.16929 33.6343 6.37901 33.7897 6.62369 33.9106C6.86837 34.0141 7.09557 34.1523 7.30529 34.3249C7.56745 34.8256 7.68105 35.3694 7.64609 35.9563C7.61114 36.5433 7.46258 37.0871 7.20043 37.5878C7.28782 37.605 7.34898 37.6655 7.38394 37.769C7.41889 37.9244 7.44511 38.0798 7.46258 38.2352C7.48006 38.3733 7.50628 38.52 7.54123 38.6754L7.67231 38.8049C7.74222 38.8912 7.8296 38.9516 7.93446 38.9861C8.0568 39.0207 8.1704 39.0552 8.27526 39.0897C8.3976 39.107 8.50246 39.1415 8.58985 39.1933C8.67723 39.2451 8.7384 39.3401 8.77336 39.4782C8.91317 39.6853 8.9656 39.8839 8.93065 40.0738C8.91317 40.2637 8.83453 40.4363 8.69471 40.5917C8.57237 40.7471 8.41508 40.8852 8.22283 41.006C8.03059 41.1096 7.83834 41.1873 7.64609 41.2391C7.47132 41.2909 7.35772 41.2304 7.30529 41.0578C7.25286 40.8852 7.31403 40.773 7.4888 40.7212L7.77717 40.6435C7.86455 40.609 7.9432 40.5658 8.01311 40.514C8.10049 40.4622 8.18788 40.3932 8.27526 40.3068C8.41508 40.2205 8.45003 40.0997 8.38012 39.9443C8.31022 39.7889 8.26652 39.6767 8.24905 39.6076C7.89951 39.6249 7.58492 39.4868 7.30529 39.1933C7.04314 38.8998 6.90332 38.5632 6.88585 38.1834C6.6936 38.1834 6.59748 38.0971 6.59748 37.9244C6.59748 37.8381 6.59748 37.7604 6.59748 37.6914C6.59748 37.605 6.61495 37.5187 6.64991 37.4324C6.94702 37.0699 7.09557 36.6642 7.09557 36.2153C7.11305 35.7664 7.09557 35.3176 7.04314 34.8687C6.95575 34.7479 6.85089 34.6443 6.72855 34.558C6.60622 34.4716 6.47514 34.394 6.33532 34.3249C6.19551 34.2558 6.05569 34.1868 5.91588 34.1177C5.79354 34.0314 5.68868 33.9278 5.60129 33.807C5.47895 33.5308 5.40904 33.2373 5.39157 32.9265C5.39157 32.5985 5.46148 32.2964 5.60129 32.0202C5.65372 31.7267 5.80228 31.5195 6.04695 31.3987C6.29163 31.2606 6.52757 31.1138 6.75477 30.9584C6.94701 30.8894 7.06062 30.7772 7.09557 30.6218C7.148 30.4664 7.15674 30.3024 7.12178 30.1298C7.08683 29.9399 7.01692 29.7586 6.91206 29.586C6.8072 29.4133 6.70234 29.2752 6.59748 29.1716C6.56252 28.8264 6.52757 28.4552 6.49261 28.0581C6.45766 27.661 6.58874 27.3244 6.88585 27.0482C7.07809 26.7202 7.35772 26.5303 7.72474 26.4785C8.09175 26.4267 8.45003 26.4094 8.79957 26.4267ZM6.07317 32.2532C6.03821 32.3223 6.02074 32.3654 6.02074 32.3827L6.07317 32.2532Z" fill="#778DA9"/>
<path d="M25.5918 24.8729H19.6671L20.3487 41.7829L23.2586 43L31.2281 41.1614L31.7524 36.2412L23.3372 39.8148L23.6518 34.9723H28.3968V31.0879H23.6518L22.5246 28.1358L31.4902 30.7254L31.9097 26.6856L30.73 26.349L25.5918 24.8729ZM22.5246 25.9347C22.6993 26.0037 22.7518 26.1159 22.6819 26.2713C22.6119 26.4267 22.4896 26.4698 22.3148 26.4008C22.175 26.3145 22.009 26.3058 21.8167 26.3749C21.6245 26.4439 21.5459 26.5821 21.5808 26.7892C21.3886 26.9273 21.3099 27.1 21.3449 27.3071C21.3798 27.497 21.3973 27.6869 21.3973 27.8768C21.4847 27.9114 21.5459 27.9632 21.5808 28.0322C21.6332 28.084 21.6944 28.1358 21.7643 28.1876C22.009 28.3948 22.1139 28.6451 22.0789 28.9386C22.0614 29.2321 22.0702 29.5169 22.1051 29.7931C21.9653 29.9485 21.8342 30.1298 21.7119 30.3369C21.5896 30.5441 21.4934 30.7513 21.4235 30.9584C21.3536 31.1656 21.3274 31.3814 21.3449 31.6058C21.3798 31.813 21.4847 32.0115 21.6595 32.2014C21.9566 32.3913 22.1925 32.6417 22.3673 32.9524C22.542 33.2632 22.6382 33.5912 22.6556 33.9365C22.6906 34.2817 22.6382 34.6184 22.4984 34.9464C22.376 35.2744 22.1576 35.5334 21.843 35.7233L21.8692 35.6456C21.8342 35.7492 21.7818 35.8614 21.7119 35.9822C21.6595 36.0858 21.607 36.198 21.5546 36.3189C21.5022 36.4397 21.4672 36.5692 21.4497 36.7073C21.4497 36.8282 21.4934 36.949 21.5808 37.0699C21.5983 37.0526 21.607 37.044 21.607 37.044C21.6245 37.044 21.642 37.0353 21.6595 37.0181C21.8167 36.949 21.9303 36.9922 22.0003 37.1475C22.1226 37.3202 22.1838 37.5274 22.1838 37.769C22.3585 38.1834 22.4284 38.615 22.3935 39.0638C22.376 39.5127 22.2974 39.9529 22.1576 40.3845C22.0876 40.678 22.1051 40.9197 22.21 41.1096C22.3323 41.2822 22.4984 41.4204 22.7081 41.5239C22.9178 41.6275 23.1537 41.6966 23.4159 41.7311C23.678 41.7656 23.914 41.7656 24.1237 41.7311C24.2985 41.4894 24.3771 41.2563 24.3596 41.0319C24.3596 40.842 24.447 40.7471 24.6218 40.7471C24.7966 40.7471 24.884 40.842 24.884 41.0319C24.9014 41.2391 24.8665 41.4376 24.7791 41.6275C24.7092 41.8174 24.6043 41.9901 24.4645 42.1454C24.447 42.18 24.4121 42.2059 24.3596 42.2231C24.3247 42.2404 24.2897 42.249 24.2548 42.249C23.9926 42.2663 23.7217 42.2663 23.4421 42.249C23.18 42.2318 22.9265 42.1886 22.6819 42.1195C22.3673 42.016 22.1313 41.852 21.974 41.6275C21.8167 41.4031 21.7119 41.1614 21.6595 40.9024C21.607 40.6262 21.5983 40.35 21.6332 40.0738C21.6857 39.7803 21.7556 39.5041 21.843 39.2451C21.8779 39.107 21.8867 38.9689 21.8692 38.8308C21.8517 38.6927 21.8167 38.5632 21.7643 38.4423C21.7294 38.3042 21.6944 38.1747 21.6595 38.0539C21.6245 37.9158 21.607 37.7777 21.607 37.6396C21.4847 37.6741 21.3973 37.6482 21.3449 37.5619C21.1526 37.4065 21.0303 37.2252 20.9779 37.0181C20.9429 36.7936 20.9516 36.5778 21.0041 36.3707C21.0565 36.1462 21.1351 35.9391 21.24 35.7492C21.3623 35.542 21.4934 35.3607 21.6332 35.2054C21.8255 35.1018 21.9566 34.9637 22.0265 34.791C22.1139 34.6184 22.1576 34.4371 22.1576 34.2472C22.1576 34.04 22.1226 33.8415 22.0527 33.6516C22.0003 33.4444 21.9478 33.2632 21.8954 33.1078C21.5633 32.9352 21.3099 32.7107 21.1351 32.4345C20.9604 32.141 20.8643 31.8389 20.8468 31.5282C20.8293 31.2001 20.873 30.8721 20.9779 30.5441C21.1002 30.2161 21.2837 29.9312 21.5284 29.6896C21.5109 29.5169 21.5284 29.3356 21.5808 29.1457C21.6332 28.9386 21.5721 28.7832 21.3973 28.6796C21.3973 28.5415 21.3361 28.4466 21.2138 28.3948C21.1089 28.343 21.0128 28.2739 20.9254 28.1876C20.8905 28.1703 20.8643 28.1444 20.8468 28.1099C20.8293 28.0581 20.8206 28.015 20.8206 27.9804C20.838 27.756 20.838 27.5229 20.8206 27.2812C20.8031 27.0395 20.8643 26.8237 21.0041 26.6338C21.074 26.3058 21.2662 26.0641 21.5808 25.9088C21.9129 25.7534 22.2275 25.762 22.5246 25.9347Z" fill="#778DA9"/>
<path d="M33.5866 26.09L33.8226 43L38.5676 41.7829L36.8374 37.3806L39.7997 36.3189L40.4813 43L44.5447 40.4104L41.5037 34.1436L43.5223 32.6417L44.4398 26.09L40.2191 24.3032L33.5866 26.09ZM41.6086 28.8091L37.0733 33.2373V28.2394L41.6086 28.8091ZM35.0023 34.7133C35.0372 34.6098 35.1159 34.558 35.2382 34.558C35.378 34.2817 35.4654 33.9969 35.5004 33.7034C35.5528 33.4099 35.5353 33.1164 35.4479 32.8229C35.2906 32.6503 35.1508 32.4604 35.0285 32.2532C34.9062 32.0461 34.8188 31.8303 34.7663 31.6058C34.7139 31.3641 34.6964 31.1311 34.7139 30.9067C34.7489 30.665 34.8363 30.4405 34.9761 30.2334C35.1508 30.1643 35.2732 30.0694 35.3431 29.9485C35.413 29.8104 35.4479 29.6637 35.4479 29.5083C35.4654 29.3529 35.4479 29.1975 35.3955 29.0422C35.3606 28.8868 35.3081 28.74 35.2382 28.6019C34.9062 28.3602 34.7227 28.0408 34.6877 27.6438C34.6702 27.2467 34.7576 26.8842 34.9499 26.5562C35.1071 26.418 35.2907 26.3231 35.5004 26.2713C35.7276 26.2195 35.9548 26.2022 36.182 26.2195C36.4267 26.2368 36.6626 26.2799 36.8898 26.349C37.117 26.418 37.3267 26.5044 37.519 26.6079C37.5889 26.6597 37.6326 26.7202 37.65 26.7892C37.6675 26.8583 37.6588 26.9273 37.6238 26.9964C37.5889 27.0482 37.5364 27.0913 37.4665 27.1259C37.3966 27.1431 37.3267 27.1259 37.2568 27.0741C37.0121 26.9187 36.7325 26.8237 36.4179 26.7892C36.1208 26.7374 35.8237 26.7374 35.5266 26.7892C35.3693 26.8583 35.2819 26.9964 35.2644 27.2036C35.247 27.3935 35.2382 27.5661 35.2382 27.7215C35.5004 28.0495 35.7188 28.4466 35.8936 28.9127C36.0859 29.3615 36.0509 29.8018 35.7887 30.2334C35.5266 30.3715 35.3518 30.5786 35.2644 30.8549C35.1945 31.1138 35.2033 31.3728 35.2906 31.6317C35.5004 31.8389 35.6664 32.0806 35.7887 32.3568C35.9111 32.6158 35.9897 32.892 36.0247 33.1855C36.0596 33.4617 36.0422 33.7466 35.9723 34.04C35.9198 34.3335 35.8062 34.6011 35.6315 34.8428C35.614 34.9809 35.5353 35.0672 35.3955 35.1018C35.3081 35.2744 35.1945 35.4384 35.0547 35.5938C34.9149 35.7319 34.8799 35.9045 34.9499 36.1117C34.9499 36.1808 34.9586 36.2326 34.9761 36.2671C35.1683 36.457 35.3518 36.6469 35.5266 36.8368C35.7188 37.0094 35.8499 37.2339 35.9198 37.5101C36.0596 37.8208 36.0946 38.123 36.0247 38.4164C35.9723 38.6927 35.8761 38.9689 35.7363 39.2451C35.614 39.5041 35.4916 39.7717 35.3693 40.0479C35.247 40.3241 35.2033 40.609 35.2382 40.9024H35.1334L35.5528 40.9801C35.6926 41.0492 35.7975 41.0319 35.8674 40.9283C35.9548 40.8247 36.0247 40.7212 36.0771 40.6176C36.0771 40.4277 36.1645 40.3327 36.3393 40.3327C36.514 40.3327 36.6014 40.4277 36.6014 40.6176C36.6014 40.7039 36.5752 40.7816 36.5228 40.8506C36.4878 40.9197 36.4529 40.9974 36.4179 41.0837C36.348 41.2391 36.2519 41.3513 36.1295 41.4204C36.0247 41.4721 35.9023 41.5067 35.7625 41.5239C35.6402 41.5239 35.5091 41.5153 35.3693 41.498C35.2295 41.4808 35.0984 41.4549 34.9761 41.4204C34.8013 41.4204 34.7139 41.334 34.7139 41.1614V40.0479C34.9236 39.8234 35.0984 39.5559 35.2382 39.2451C35.378 38.9344 35.4567 38.6236 35.4742 38.3129C35.4916 37.9848 35.4305 37.6827 35.2906 37.4065C35.1683 37.1303 34.9499 36.8972 34.6353 36.7073C34.3906 36.362 34.3294 36.0168 34.4518 35.6715C34.5741 35.3089 34.7576 34.9896 35.0023 34.7133Z" fill="#778DA9"/>
<path d="M46.2196 24.8729L46.141 43L51.6724 41.7829L48.8674 35.7233L48.946 29.6896L51.4627 34.8428L53.9007 36.1635L56.5485 28.6019L56.732 39.1933L54.0842 41.4463L59.9041 43L59.4322 25.9864L54.3726 24.8729L52.5113 30.9843L51.4103 26.1936L46.2196 24.8729ZM50.0995 27.4884C50.0995 27.6783 50.0121 27.7733 49.8373 27.7733C49.6626 27.7733 49.5752 27.6783 49.5752 27.4884C49.4703 27.3848 49.3043 27.3244 49.0771 27.3071C48.8674 27.2899 48.6664 27.264 48.4741 27.2295C48.3168 27.2295 48.2032 27.2726 48.1333 27.3589C48.0634 27.4452 48.011 27.5575 47.976 27.6956C47.9586 27.8164 47.9498 27.9459 47.9498 28.084C47.9498 28.2221 47.9498 28.343 47.9498 28.4466C48.0547 28.6192 48.1595 28.7918 48.2644 28.9645C48.3693 29.1198 48.4392 29.3011 48.4741 29.5083C48.4916 29.7154 48.4392 29.8967 48.3168 30.0521C48.212 30.2075 48.0896 30.3628 47.9498 30.5182C47.81 30.6563 47.6789 30.8031 47.5566 30.9584C47.4517 31.1138 47.408 31.2951 47.4255 31.5023C47.3906 31.7267 47.4343 31.9166 47.5566 32.072C47.6964 32.2273 47.8275 32.3827 47.9498 32.5381C48.0722 32.8143 48.1246 33.0819 48.1071 33.3409C48.0896 33.5998 48.0372 33.8588 47.9498 34.1177C47.8624 34.3594 47.7663 34.6098 47.6615 34.8687C47.5741 35.1104 47.5216 35.3694 47.5042 35.6456C47.5915 35.6628 47.6527 35.7146 47.6877 35.801C47.7401 35.8873 47.7401 35.9736 47.6877 36.0599L48.0023 36.3448C48.1945 36.3966 48.3518 36.5001 48.4741 36.6555C48.5965 36.8109 48.6751 36.9835 48.7101 37.1734C48.745 37.3633 48.7275 37.5619 48.6576 37.769C48.6052 37.9589 48.5003 38.1143 48.3431 38.2352C48.0809 38.3215 47.8712 38.4596 47.7139 38.6495C47.5741 38.8221 47.4779 39.0293 47.4255 39.271C47.3731 39.5127 47.3556 39.763 47.3731 40.022C47.408 40.2809 47.4605 40.514 47.5304 40.7212C47.5304 40.842 47.5741 40.9542 47.6615 41.0578C47.7488 41.1614 47.8537 41.2391 47.976 41.2909C48.1159 41.3427 48.2557 41.3599 48.3955 41.3427C48.5528 41.3254 48.6839 41.265 48.7887 41.1614C48.7887 41.0233 48.7975 40.8938 48.8149 40.773C48.8499 40.6521 48.8761 40.5226 48.8936 40.3845C48.8936 40.1946 48.981 40.0997 49.1557 40.0997C49.3305 40.0997 49.4179 40.1946 49.4179 40.3845C49.4004 40.5226 49.3829 40.6694 49.3655 40.8247C49.3655 40.9629 49.3392 41.101 49.2868 41.2391C49.2344 41.3772 49.1645 41.498 49.0771 41.6016C48.9897 41.7052 48.8586 41.7829 48.6839 41.8347C48.1595 41.9383 47.7488 41.8433 47.4517 41.5498C47.1546 41.2563 46.9624 40.8938 46.875 40.4622C46.7876 40.0133 46.8051 39.5559 46.9274 39.0897C47.0672 38.6236 47.2944 38.2697 47.609 38.028C47.8013 38.0107 47.9411 37.9417 48.0285 37.8208C48.1333 37.7 48.1858 37.5619 48.1858 37.4065C48.1858 37.2511 48.1333 37.113 48.0285 36.9922C47.9411 36.8541 47.8013 36.7764 47.609 36.7591C47.5741 36.6555 47.5042 36.5778 47.3993 36.526C47.3119 36.457 47.2333 36.3793 47.1634 36.293C47.0585 36.2585 47.0061 36.1808 47.0061 36.0599C46.9711 35.8355 46.9711 35.6197 47.0061 35.4125C47.041 35.2054 47.0847 34.9982 47.1371 34.791C47.2071 34.5839 47.277 34.3853 47.3469 34.1954C47.4343 33.9883 47.5042 33.7811 47.5566 33.5739C47.5915 33.5049 47.5915 33.4358 47.5566 33.3668C47.5391 33.2977 47.5129 33.2373 47.4779 33.1855C47.4605 33.1164 47.443 33.0474 47.4255 32.9783C47.408 32.9093 47.4168 32.8402 47.4517 32.7712C47.2071 32.564 47.041 32.3223 46.9536 32.0461C46.8837 31.7698 46.875 31.4936 46.9274 31.2174C46.9973 30.9412 47.1109 30.6822 47.2682 30.4405C47.443 30.1816 47.6527 29.9744 47.8974 29.819C47.9848 29.5773 47.9498 29.3702 47.7925 29.1975C47.6352 29.0076 47.5129 28.8091 47.4255 28.6019C47.4605 28.3775 47.4605 28.1531 47.4255 27.9286C47.3906 27.7042 47.443 27.497 47.5828 27.3071C47.6352 27.1 47.7314 26.9532 47.8712 26.8669C48.0285 26.7806 48.1945 26.7374 48.3693 26.7374C48.544 26.7202 48.7275 26.7288 48.9198 26.7633C49.112 26.7978 49.2868 26.8151 49.4441 26.8151C49.5664 26.9187 49.715 27.005 49.8898 27.0741C50.0645 27.1259 50.1344 27.264 50.0995 27.4884ZM47.4779 35.6456V35.5679L47.2944 35.6974C47.3294 35.6974 47.3556 35.6887 47.3731 35.6715C47.3906 35.6715 47.3993 35.6715 47.3993 35.6715C47.4168 35.6542 47.443 35.6456 47.4779 35.6456Z" fill="#778DA9"/>
<path d="M62.9178 29.5342L60.9254 39.5818L61.5022 43L66.7452 41.1355L64.9626 36.3707H70.0222L67.9512 43H73.0369L73.9807 40.8765L71.9359 24.2773L65.1461 26.5303L62.9178 29.5342ZM66.7452 29.1975L70.7562 26.9187L70.0222 32.4863H64.9626L66.7452 29.1975ZM66.7977 27.2812C66.8851 27.2985 66.9462 27.3417 66.9812 27.4107C67.0336 27.4625 67.0511 27.5229 67.0336 27.592C67.0336 27.6438 67.0074 27.6956 66.955 27.7474C66.9025 27.7992 66.8326 27.8164 66.7452 27.7992C66.553 27.7819 66.3345 27.7905 66.0899 27.8251C65.8452 27.8596 65.6966 27.9977 65.6442 28.2394C65.7491 28.3948 65.8015 28.5674 65.8015 28.7573C65.819 28.9299 65.7928 29.1026 65.7228 29.2752C65.6529 29.4306 65.5393 29.5687 65.382 29.6896C65.2422 29.7931 65.0762 29.8536 64.884 29.8708C64.6393 29.9571 64.4733 30.0866 64.3859 30.2593C64.316 30.4146 64.2723 30.5959 64.2548 30.8031C64.2548 30.993 64.2723 31.2001 64.3072 31.4246C64.3422 31.649 64.3596 31.8475 64.3596 32.0202C64.3247 32.1755 64.2286 32.2964 64.0713 32.3827C63.914 32.4518 63.7916 32.5122 63.7043 32.564C63.5644 32.7194 63.4945 32.9006 63.4945 33.1078C63.512 33.315 63.5208 33.5135 63.5208 33.7034C63.678 33.8588 63.8091 34.0487 63.914 34.2731C64.0363 34.4803 64.115 34.6961 64.1499 34.9205C64.1849 35.1449 64.1761 35.3694 64.1237 35.5938C64.0713 35.801 63.9577 35.9822 63.7829 36.1376C63.748 36.2239 63.6868 36.2844 63.5994 36.3189C63.4072 36.4397 63.2324 36.6037 63.0751 36.8109C62.9353 37.0008 62.8304 37.2166 62.7605 37.4583C62.7081 37.7 62.6906 37.9503 62.7081 38.2093C62.743 38.451 62.8392 38.6754 62.9964 38.8826C63.2411 39.0207 63.4858 39.1674 63.7305 39.3228C63.9926 39.4609 64.1587 39.6853 64.2286 39.9961C64.316 40.2033 64.3334 40.3932 64.281 40.5658C64.2286 40.7384 64.1324 40.8938 63.9926 41.0319C63.8703 41.17 63.713 41.2822 63.5208 41.3686C63.346 41.4549 63.1712 41.5153 62.9964 41.5498C62.8042 41.5498 62.7081 41.4635 62.7081 41.2909C62.7081 41.1182 62.8042 41.0319 62.9964 41.0319C63.0664 41.0492 63.1188 41.0406 63.1537 41.006C63.1887 40.9542 63.2324 40.9111 63.2848 40.8765C63.4246 40.8593 63.5295 40.7989 63.5994 40.6953C63.6868 40.5917 63.7305 40.4881 63.7305 40.3845C63.748 40.2637 63.7305 40.1428 63.6781 40.022C63.6431 39.9011 63.5732 39.8062 63.4683 39.7371C62.9615 39.599 62.5945 39.3055 62.3673 38.8567C62.1401 38.3905 62.0876 37.9158 62.21 37.4324C62.3323 37.2425 62.411 37.0353 62.4459 36.8109C62.4809 36.5692 62.612 36.4052 62.8392 36.3189C62.9265 36.2326 63.0139 36.1376 63.1013 36.034C63.1887 35.9132 63.2761 35.8441 63.3635 35.8269C63.5208 35.706 63.6081 35.5593 63.6256 35.3866C63.6606 35.1967 63.6518 35.0155 63.5994 34.8428C63.547 34.6529 63.4596 34.4803 63.3372 34.3249C63.2324 34.1523 63.1188 34.0141 62.9964 33.9106C63.0314 33.6689 63.0227 33.4272 62.9702 33.1855C62.9353 32.9438 62.9877 32.7194 63.1275 32.5122C63.1625 32.3568 63.2499 32.2446 63.3897 32.1755C63.5295 32.0892 63.6693 32.0115 63.8091 31.9425C63.7916 31.7181 63.7742 31.4764 63.7567 31.2174C63.7392 30.9584 63.748 30.7081 63.7829 30.4664C63.8353 30.2075 63.9227 29.983 64.0451 29.7931C64.1849 29.6032 64.3946 29.4651 64.6742 29.3788C64.849 29.4133 65.0063 29.3529 65.1461 29.1975C65.3034 29.0249 65.3384 28.8436 65.251 28.6537C65.1112 28.4293 65.0762 28.2221 65.1461 28.0322C65.216 27.8251 65.3384 27.661 65.5131 27.5402C65.6879 27.4021 65.8889 27.3071 66.1161 27.2553C66.3608 27.2036 66.588 27.2122 66.7977 27.2812Z" fill="#778DA9"/>
<path d="M85.5958 37.0181L80.1167 30.0521L78.3865 24.2773L75.398 25.5462V43L79.7235 41.7052L78.3865 32.6417L83.6296 40.8506L88.427 43V26.3749L83.8655 24.355L85.5958 37.0181ZM76.0796 31.7612C76.0621 31.6404 76.0971 31.5454 76.1844 31.4764C76.2194 31.0966 76.3679 30.7685 76.6301 30.4923C76.9097 30.2161 77.1631 29.9571 77.3903 29.7154C77.4078 29.5255 77.3991 29.3184 77.3641 29.0939C77.3292 28.8695 77.2068 28.7141 76.9971 28.6278C76.8573 28.5933 76.7612 28.5329 76.7087 28.4466C76.6738 28.343 76.6214 28.248 76.5515 28.1617C76.4291 28.1272 76.3679 28.0495 76.3679 27.9286C76.3155 27.6869 76.3155 27.4539 76.3679 27.2295C76.4379 26.9878 76.5427 26.7806 76.6825 26.6079C76.8398 26.418 77.0146 26.2627 77.2068 26.1418C77.4166 26.021 77.6438 25.9433 77.8884 25.9088C78.0807 25.9088 78.1768 25.9951 78.1768 26.1677C78.1768 26.3404 78.0807 26.4267 77.8884 26.4267C77.7486 26.4094 77.635 26.4439 77.5476 26.5303C77.4777 26.5993 77.3991 26.677 77.3117 26.7633C77.1195 26.8496 76.9884 26.9878 76.9185 27.1777C76.866 27.3676 76.8573 27.5575 76.8923 27.7474C76.8923 27.7819 76.9272 27.8251 76.9971 27.8768C77.067 27.9286 77.1107 27.9891 77.1282 28.0581C77.4777 28.2135 77.7137 28.4811 77.836 28.8609C77.9583 29.2234 77.9846 29.5773 77.9146 29.9226C77.9146 30.0262 77.8535 30.0953 77.7311 30.1298C77.5039 30.3542 77.2767 30.5873 77.0495 30.829C76.8398 31.0707 76.735 31.3641 76.735 31.7094C76.735 31.8303 76.7 31.908 76.6301 31.9425C76.6301 32.0633 76.6214 32.1842 76.6039 32.305C76.5864 32.4086 76.5951 32.5122 76.6301 32.6158C76.8748 32.7539 77.0932 32.9611 77.2855 33.2373C77.4777 33.4962 77.6001 33.7811 77.6525 34.0918C77.7224 34.3853 77.7137 34.6788 77.6263 34.9723C77.5389 35.2485 77.3379 35.4816 77.0233 35.6715C76.7961 35.7923 76.6825 35.9822 76.6825 36.2412C76.7 36.5001 76.7 36.7332 76.6825 36.9404L76.9709 37.0958C77.3554 37.1475 77.6438 37.2857 77.836 37.5101C78.0457 37.7173 78.1855 37.9762 78.2555 38.287C78.3428 38.5804 78.3778 38.8998 78.3603 39.2451C78.3603 39.5731 78.3341 39.8839 78.2817 40.1774V40.2809C78.2642 40.5399 78.1506 40.7643 77.9409 40.9542C77.7311 41.1269 77.4952 41.2391 77.2331 41.2909C76.9884 41.3427 76.7524 41.3168 76.5252 41.2132C76.3155 41.0923 76.1932 40.8765 76.1582 40.5658C76.1407 40.4795 76.1495 40.4104 76.1844 40.3586C76.2369 40.3068 76.2893 40.2809 76.3417 40.2809C76.4116 40.2637 76.4815 40.2723 76.5515 40.3068C76.6214 40.3241 76.665 40.3759 76.6825 40.4622C76.7 40.6176 76.7612 40.7212 76.866 40.773C76.9884 40.8075 77.1107 40.8075 77.2331 40.773C77.3729 40.7384 77.4952 40.6694 77.6001 40.5658C77.7049 40.4622 77.7574 40.3414 77.7574 40.2033C77.7748 39.9443 77.8011 39.6853 77.836 39.4264C77.871 39.1674 77.8622 38.9085 77.8098 38.6495C77.8273 38.4251 77.7836 38.2438 77.6787 38.1057C77.5913 37.9676 77.469 37.864 77.3117 37.7949C77.1544 37.7086 76.9796 37.6396 76.7874 37.5878C76.5951 37.5187 76.4291 37.4324 76.2893 37.3288C76.2019 37.2943 76.1582 37.2166 76.1582 37.0958C76.1582 36.785 76.167 36.4743 76.1844 36.1635C76.2019 35.8355 76.333 35.5506 76.5777 35.3089C76.8049 35.2399 76.9622 35.119 77.0495 34.9464C77.1369 34.7738 77.1719 34.5925 77.1544 34.4026C77.1544 34.2127 77.1107 34.0228 77.0233 33.8329C76.9359 33.643 76.8223 33.479 76.6825 33.3409C76.4903 33.2891 76.3505 33.2114 76.2631 33.1078C76.1757 32.987 76.1145 32.8488 76.0796 32.6935C76.0621 32.5381 76.0534 32.3827 76.0534 32.2273C76.0708 32.0547 76.0796 31.8993 76.0796 31.7612Z" fill="#778DA9"/>
<path d="M89.8345 32.6417L90.0704 39.6594L92.7182 43H97.8826L102.287 39.8148L102.706 33.5739V30.0521L99.2982 25.8052L94.0551 24.8729L92.1152 26.8928L92.2201 26.9705L90.2539 29.4565L89.8345 32.6417ZM98.8264 39.5559L94.3697 39.9702L93.1376 33.7811L95.0513 28.5501L99.6652 31.321L98.8264 39.5559ZM93.3211 28.9645L93.2949 28.9904V28.6278C93.1201 28.2998 93.0852 27.9632 93.19 27.6179C93.3124 27.2553 93.4959 26.9532 93.7406 26.7115C94.16 26.6425 94.6144 26.5993 95.1038 26.5821C95.5931 26.5648 95.9951 26.7202 96.3097 27.0482C96.3271 27.0482 96.3359 27.0568 96.3359 27.0741C96.3359 27.0741 96.3446 27.0741 96.3621 27.0741C96.5544 27.0741 96.6505 27.1604 96.6505 27.333C96.6505 27.5057 96.5544 27.592 96.3621 27.592H96.2048C95.9427 27.2812 95.6019 27.1259 95.1824 27.1259C94.763 27.1086 94.3697 27.1259 94.0027 27.1777C93.8804 27.3158 93.7755 27.4884 93.6881 27.6956C93.6881 27.7474 93.6794 27.8078 93.6619 27.8768C93.6619 27.9286 93.6619 27.9804 93.6619 28.0322C93.6619 28.0667 93.6619 28.1013 93.6619 28.1358C93.6794 28.1703 93.6881 28.2049 93.6881 28.2394C93.7755 28.3602 93.8192 28.4897 93.8192 28.6278C93.8192 28.7659 93.8192 28.904 93.8192 29.0422C93.7668 29.3356 93.592 29.5342 93.2949 29.6378C93.0153 29.7241 92.7531 29.8104 92.5084 29.8967C92.1939 29.9485 92.0103 30.1125 91.9579 30.3887C91.9055 30.6477 91.8618 30.898 91.8268 31.1397C91.7919 31.3469 91.8443 31.5109 91.9841 31.6317C92.1414 31.7353 92.2987 31.8303 92.456 31.9166C92.5609 31.9856 92.5958 32.072 92.5609 32.1755C92.5259 32.3482 92.5259 32.5208 92.5609 32.6935C92.5958 32.8488 92.5696 33.0128 92.4822 33.1855C92.1327 33.479 91.8705 33.8501 91.6958 34.299C91.5385 34.7306 91.5035 35.1708 91.5909 35.6197C92.0104 35.8096 92.3075 36.1203 92.4822 36.5519C92.6745 36.9663 92.7269 37.3892 92.6395 37.8208C92.6395 37.9417 92.5871 38.0194 92.4822 38.0539C92.4648 38.0712 92.4473 38.0798 92.4298 38.0798C92.4298 38.0798 92.4211 38.0884 92.4036 38.1057C92.4211 38.2956 92.3686 38.4682 92.2463 38.6236C92.1414 38.7617 92.0453 38.9171 91.9579 39.0897C91.8531 39.2796 91.8705 39.435 92.0104 39.5559C92.1676 39.6767 92.3162 39.7544 92.456 39.7889C92.6832 39.7371 92.8755 39.7544 93.0327 39.8407C93.19 39.927 93.3211 40.0565 93.426 40.2291C93.5308 40.3845 93.6007 40.5658 93.6357 40.773C93.6707 40.9801 93.6794 41.17 93.6619 41.3427C93.6794 41.5153 93.7318 41.6362 93.8192 41.7052C93.9241 41.757 94.0464 41.7915 94.1862 41.8088C94.3435 41.8261 94.4921 41.8261 94.6319 41.8088C94.7892 41.7915 94.929 41.7915 95.0513 41.8088C95.1737 41.7397 95.2348 41.6448 95.2348 41.5239C95.2348 41.3858 95.2348 41.2563 95.2348 41.1355C95.2348 40.9456 95.3222 40.8506 95.497 40.8506C95.6718 40.8506 95.7592 40.9456 95.7592 41.1355V41.6793C95.7067 41.8865 95.6106 42.0419 95.4708 42.1454C95.3484 42.2318 95.1999 42.2922 95.0251 42.3267C94.8504 42.344 94.6668 42.3526 94.4746 42.3526C94.2823 42.3353 94.1076 42.3267 93.9503 42.3267C93.7056 42.2922 93.5308 42.2059 93.426 42.0677C93.3211 41.9296 93.2425 41.7656 93.19 41.5757C93.1376 41.3858 93.1027 41.1959 93.0852 41.006C93.0677 40.7989 93.0328 40.609 92.9803 40.4363C92.7881 40.3845 92.5871 40.3414 92.3774 40.3068C92.1851 40.255 91.9929 40.1687 91.8006 40.0479C91.6084 39.9443 91.486 39.8148 91.4336 39.6594C91.3812 39.5041 91.3637 39.3487 91.3812 39.1933C91.4161 39.0207 91.4773 38.8567 91.5647 38.7013C91.6521 38.5287 91.7307 38.3647 91.8006 38.2093C91.7831 38.1747 91.7919 38.1143 91.8268 38.028C91.8793 37.8554 91.9754 37.7345 92.1152 37.6655C92.1327 37.4756 92.1414 37.2857 92.1414 37.0958C92.1414 36.9058 92.0715 36.7332 91.9317 36.5778L91.9579 36.6296L91.6433 36.2671C91.3462 36.0944 91.154 35.87 91.0666 35.5938C90.9967 35.3003 90.9879 34.9982 91.0404 34.6874C91.1103 34.3767 91.2239 34.0659 91.3812 33.7552C91.5385 33.4444 91.7045 33.1855 91.8793 32.9783C92.0191 32.9265 92.0628 32.8316 92.0104 32.6935C91.9754 32.5381 91.9667 32.4 91.9841 32.2791C91.6346 32.141 91.4161 31.8993 91.3288 31.554C91.2588 31.1915 91.2763 30.8462 91.3812 30.5182C91.3637 30.1384 91.5035 29.8622 91.8006 29.6896C92.0977 29.5169 92.3948 29.3874 92.6919 29.3011C92.8143 29.3184 92.9104 29.2839 92.9803 29.1975C93.0677 29.1112 93.1551 29.068 93.2425 29.068L93.2949 29.0163V28.9904C93.3124 28.9904 93.3211 28.9904 93.3211 28.9904C93.3211 28.9731 93.3211 28.9645 93.3211 28.9645Z" fill="#778DA9"/>
<path d="M104.332 29.327L106.56 32.9265L111.2 35.2313L110.23 39.5559L107.111 37.8208L104.594 43L112.17 42.4303L115.264 35.7492L108.867 28.7055L114.477 30.0521L114.11 24.2773L105.826 26.7115L104.332 29.327ZM110.152 27.1259C110.239 27.1431 110.292 27.1863 110.309 27.2553C110.344 27.3244 110.353 27.3935 110.335 27.4625C110.335 27.5143 110.309 27.5661 110.257 27.6179C110.204 27.6524 110.134 27.661 110.047 27.6438C109.47 27.5057 108.92 27.4625 108.395 27.5143C108.168 27.4798 107.95 27.5057 107.74 27.592C107.548 27.661 107.373 27.7819 107.216 27.9545C107.076 28.1099 106.98 28.2912 106.927 28.4983C106.875 28.7055 106.875 28.9213 106.927 29.1457C106.91 29.2838 106.945 29.3874 107.032 29.4565C107.12 29.5083 107.216 29.5514 107.321 29.586C107.443 29.6032 107.565 29.6291 107.688 29.6637C107.827 29.6982 107.932 29.75 108.002 29.819C108.229 29.9053 108.404 30.0262 108.526 30.1816C108.649 30.3369 108.727 30.5182 108.762 30.7254C108.815 30.9153 108.832 31.1225 108.815 31.3469C108.797 31.5713 108.78 31.7785 108.762 31.9684C108.797 32.1238 108.78 32.2791 108.71 32.4345C108.64 32.5726 108.649 32.7194 108.736 32.8747C109.016 32.9783 109.304 33.0387 109.601 33.056C109.898 33.056 110.187 33.0646 110.466 33.0819C110.764 33.0992 111.052 33.1423 111.332 33.2114C111.629 33.2632 111.9 33.384 112.144 33.5739C112.284 33.5049 112.398 33.548 112.485 33.7034C112.572 33.876 112.651 34.0487 112.721 34.2213C112.808 34.394 112.835 34.5752 112.8 34.7651C112.852 35.0241 112.835 35.283 112.747 35.542C112.677 35.801 112.599 36.0599 112.511 36.3189C112.441 36.5778 112.398 36.8368 112.38 37.0958C112.363 37.3374 112.441 37.5705 112.616 37.7949C112.826 38.2093 112.887 38.615 112.8 39.012C112.73 39.3918 112.564 39.7371 112.301 40.0479C112.039 40.3414 111.716 40.5744 111.332 40.7471C110.947 40.9197 110.545 40.9888 110.126 40.9542C110.038 40.9542 109.968 40.937 109.916 40.9024C109.863 40.8506 109.828 40.7902 109.811 40.7212C109.811 40.6521 109.828 40.5917 109.863 40.5399C109.916 40.4708 109.986 40.4363 110.073 40.4363C110.335 40.419 110.589 40.3759 110.833 40.3068C111.096 40.2378 111.34 40.1256 111.567 39.9702C111.917 39.7803 112.135 39.5213 112.223 39.1933C112.31 38.8653 112.31 38.5287 112.223 38.1834C111.978 37.9417 111.847 37.6827 111.83 37.4065C111.812 37.1303 111.838 36.8454 111.908 36.5519C111.978 36.2585 112.057 35.965 112.144 35.6715C112.232 35.3607 112.267 35.0672 112.249 34.791C112.301 34.6529 112.293 34.5321 112.223 34.4285C112.153 34.3249 112.092 34.2041 112.039 34.0659C111.969 34.0659 111.917 34.0487 111.882 34.0142C111.62 33.7897 111.323 33.6602 110.991 33.6257C110.659 33.5912 110.318 33.5739 109.968 33.5739C109.636 33.5739 109.313 33.548 108.998 33.4962C108.684 33.4444 108.422 33.2718 108.212 32.9783C108.177 32.6848 108.186 32.4 108.238 32.1238C108.291 31.8303 108.308 31.5368 108.291 31.2433C108.343 31.0534 108.334 30.8894 108.264 30.7513C108.212 30.6132 108.124 30.501 108.002 30.4146C107.88 30.3283 107.74 30.2593 107.583 30.2075C107.425 30.1557 107.268 30.1125 107.111 30.078C106.761 29.9917 106.543 29.8104 106.455 29.5342C106.368 29.258 106.342 28.9731 106.377 28.6796C106.394 28.1962 106.534 27.8337 106.796 27.592C107.076 27.333 107.399 27.1604 107.766 27.0741C108.151 26.9705 108.553 26.936 108.972 26.9705C109.409 27.005 109.802 27.0568 110.152 27.1259Z" fill="#778DA9"/>
</g>
</svg>
