<svg width="17" height="21" viewBox="0 0 17 21" fill="none" xmlns="http://www.w3.org/2000/svg">
<g id="&#240;&#159;&#166;&#134; icon &#34;map pin&#34;">
<path id="Vector" d="M16 8.5C16 14.3333 8.5 19.3333 8.5 19.3333C8.5 19.3333 1 14.3333 1 8.5C1 6.51088 1.79018 4.60322 3.1967 3.1967C4.60322 1.79018 6.51088 1 8.5 1C10.4891 1 12.3968 1.79018 13.8033 3.1967C15.2098 4.60322 16 6.51088 16 8.5Z" stroke="#415A77" stroke-width="1.66667" stroke-linecap="round" stroke-linejoin="round"/>
<path id="Vector_2" d="M8.5 10.9998C9.88071 10.9998 11 9.88047 11 8.49976C11 7.11904 9.88071 5.99976 8.5 5.99976C7.11929 5.99976 6 7.11904 6 8.49976C6 9.88047 7.11929 10.9998 8.5 10.9998Z" stroke="#415A77" stroke-width="1.66667" stroke-linecap="round" stroke-linejoin="round"/>
</g>
</svg>
