<svg width="100" height="62" viewBox="0 0 100 62" fill="none" xmlns="http://www.w3.org/2000/svg">
<g id="mastercard">
<path id="3" d="M50 55.115C57.1569 49.4606 61.75 40.7042 61.75 30.875C61.75 21.0458 57.1569 12.2894 50 6.63498C55.259 2.48001 61.9024 0 69.125 0C86.1768 0 100 13.8232 100 30.875C100 47.9268 86.1768 61.75 69.125 61.75C61.9024 61.75 55.259 59.27 50 55.115Z" fill="#778DA9" fill-opacity="0.5"/>
<path id="2" d="M50 55.1051C57.1569 49.4506 61.75 40.6942 61.75 30.865C61.75 21.0359 57.1569 12.2794 50 6.62501C42.8431 12.2794 38.25 21.0359 38.25 30.865C38.25 40.6942 42.8431 49.4506 50 55.1051Z" fill="#778DA9" fill-opacity="0.8"/>
<path id="1" d="M50 6.63498C42.8431 12.2894 38.25 21.0458 38.25 30.875C38.25 40.7042 42.8431 49.4606 50 55.115C44.741 59.27 38.0976 61.75 30.875 61.75C13.8232 61.75 0 47.9268 0 30.875C0 13.8232 13.8232 0 30.875 0C38.0976 0 44.741 2.48001 50 6.63498Z" fill="#778DA9" fill-opacity="0.5"/>
</g>
</svg>
