<svg width="60" height="94" viewBox="0 0 60 94" fill="none" xmlns="http://www.w3.org/2000/svg">
<g id="solary">
<path d="M25.2717 3.76868C22.1438 1.54974 16.9544 0.140885 12.1915 0.140885C6.43344 0.140885 1.31512 2.25416 1.31512 7.67824C1.31512 17.4345 18.7672 14.3351 18.7672 18.8082C18.7672 20.3579 16.7056 21.0623 14.0754 21.0623C10.3077 21.0623 5.29604 19.7239 2.95014 17.5754L0 22.5064C3.02123 24.831 8.4239 26.2751 13.4711 26.2751C19.6558 26.2751 25.3428 24.0914 25.3428 18.6673C25.3428 8.84054 7.81965 12.0809 7.81965 7.7839C7.81965 6.09328 9.81011 5.35364 12.4404 5.35364C15.7815 5.35364 20.0823 6.58638 22.3571 8.55877L25.2717 3.76868Z" fill="#778DA9"/>
<path d="M59.4102 13.1375C59.4102 4.33222 51.7683 0 45.2637 0C38.7237 0 31.0817 4.33222 31.0817 13.1375C31.0817 21.9429 38.7237 26.2751 45.2637 26.2751C51.7683 26.2751 59.4102 21.9429 59.4102 13.1375ZM53.2966 13.1375C53.2966 18.1742 48.9603 20.6045 45.2637 20.6045C41.5316 20.6045 37.1953 18.1742 37.1953 13.1375C37.1953 8.1009 41.5316 5.63541 45.2637 5.63541C48.9603 5.63541 53.2966 8.1009 53.2966 13.1375Z" fill="#778DA9"/>
<path d="M6.71779 54.6211V34.9324H0.710877V59.5873H22.6414V54.6211H6.71779Z" fill="#778DA9"/>
<path d="M28.7378 59.5873H35.1001L36.8418 55.9947H50.775L52.5166 59.5873H58.879L46.8651 34.5802H40.7871L28.7378 59.5873ZM43.8084 41.6244L48.358 51.0285H39.2588L43.8084 41.6244Z" fill="#778DA9"/>
<path d="M0.710877 93.5065H6.71779V84.2433H12.4404L19.016 93.5065H26.5513L18.8738 83.7502C22.2149 82.5879 23.8855 79.5589 23.8855 76.5651C23.8855 72.6907 21.1841 68.8516 15.7104 68.8516H0.710877V93.5065ZM6.71779 73.8178H14.2531C16.5279 73.8178 17.6653 75.1914 17.6653 76.5651C17.6653 77.9387 16.5279 79.3123 14.2531 79.3123H6.71779V73.8178Z" fill="#778DA9"/>
<path d="M32.3824 68.8516L43.1877 83.6093V93.5065H49.1947V83.398L39.3846 68.8516H32.3824ZM48.7326 75.0153L52.2159 79.101L60 68.8516H52.9979L48.7326 75.0153Z" fill="#778DA9"/>
</g>
</svg>
