<svg width="90" height="106" viewBox="0 0 90 106" fill="none" xmlns="http://www.w3.org/2000/svg">
<g id="tesla">
<path id="Vector 7" d="M5.07579 10.3471L3.93942 8.07433C30.7625 -3.28945 62.3598 -2.07637 85.9091 8.07433L83.5606 12.6958C60.1515 1.86243 28.7879 2.77152 6.28791 12.62L5.07579 10.3471Z" fill="#778DA9"/>
<path id="Vector 8" d="M36.5154 7.99879C26.3639 8.30182 15.8336 11.1049 7.57599 14.9685C10.3318 18.6725 12.6596 20.4803 18.4093 23.1503C19.0366 19.0899 21.2538 17.9597 27.4245 17.1655L33.3336 17.0897L44.9245 81.0291L56.2124 17.0897L63.2578 17.2412C68.7972 18.0108 70.5826 19.2846 71.2881 23.1503C76.5968 20.8578 79.0054 18.9722 82.1214 14.8927C72.5449 10.6528 64.3942 8.60486 53.3336 7.99879L44.9245 18.2261L36.5154 7.99879Z" fill="#778DA9"/>
<g id="name">
<path id="t" d="M14.4697 93.9079H0C0.348521 95.0357 0.826356 95.5358 2.19697 96.1806H6.06061V105.423H8.33333V96.1806H12.3485C13.7753 95.5304 14.1085 94.9807 14.4697 93.9079Z" fill="#778DA9"/>
<g id="e">
<path id="Vector 10" d="M33.6363 93.9078H20.303C20.7276 95.1351 21.1953 95.6438 22.4999 96.1805H31.4393C32.6685 95.6968 33.1072 95.1532 33.6363 93.9078Z" fill="#778DA9"/>
<path id="Vector 11" d="M33.6364 98.4532H20.3031C20.7277 99.6805 21.1954 100.189 22.5001 100.726H31.4395C32.6686 100.242 33.1073 99.6986 33.6364 98.4532Z" fill="#778DA9"/>
<path id="Vector 12" d="M33.6364 103.15H20.3031C20.7277 104.377 21.1954 104.886 22.5001 105.423H31.4395C32.6686 104.939 33.1073 104.396 33.6364 103.15Z" fill="#778DA9"/>
</g>
<path id="s" d="M40.3031 93.9078H52.8789C52.3311 95.1817 51.8375 95.6514 50.6062 96.029H42.4244V98.6048H52.8789V105.423H39.6971C40.4273 104.191 41.0479 103.755 42.4244 103.302H50.7577V100.726H40.3031V93.9078Z" fill="#778DA9"/>
<path id="l" d="M61.6668 93.9078H59.5456V105.423H70.1517C71.2306 104.682 71.5552 104.209 71.8183 103.302H61.6668V93.9078Z" fill="#778DA9"/>
<g id="a">
<path id="Vector 15" d="M90.0001 93.9078H76.6668C77.0914 95.1351 77.5591 95.6438 78.8637 96.1805H87.8031C89.0323 95.6968 89.471 95.1532 90.0001 93.9078Z" fill="#778DA9"/>
<path id="Vector 16" d="M76.8185 98.6047H89.5457V105.423H87.4245V100.726H78.9397V105.423H76.8185V98.6047Z" fill="#778DA9"/>
</g>
</g>
</g>
</svg>
