<svg width="120" height="29" viewBox="0 0 120 29" fill="none" xmlns="http://www.w3.org/2000/svg">
<g id="todavia">
<path id="1" d="M23.2394 14.1549C23.2394 21.7606 18.0371 28.3099 11.6197 28.3099C5.20232 28.3099 0 21.9718 0 14.1549C0 6.33803 5.20232 0 11.6197 0C18.0371 0 23.2394 6.5493 23.2394 14.1549Z" fill="#778DA9"/>
<path id="2" d="M58.7323 11.1972C58.7323 18.4313 52.9625 25.7746 45.845 25.7746C38.7276 25.7746 32.9577 18.4313 32.9577 11.1972C32.9577 3.96303 36.338 2.53521 45.4225 2.53521C55.9859 2.53521 58.7323 3.96303 58.7323 11.1972Z" fill="#778DA9"/>
<path id="3" d="M88.3099 12.0423C88.3099 16.6901 83.8643 19.6479 78.3804 19.6479C72.8964 19.6479 68.4508 16.6901 68.4508 12.0423C68.4508 12.0423 68.4508 8.66197 78.3804 8.66197C88.3099 8.66197 88.3099 12.0423 88.3099 12.0423Z" fill="#778DA9"/>
<path id="4" d="M120 11.6197C120 17.6871 115.081 22.6056 109.014 22.6056C102.947 22.6056 98.0282 17.6871 98.0282 11.6197C98.0282 7.39436 103.158 5.70422 109.225 5.70422C115.293 5.70422 120 7.1831 120 11.6197Z" fill="#778DA9"/>
</g>
</svg>
